<?xml version="1.0" standalone="no"?>
<!DOCTYPE svg PUBLIC "-//W3C//DTD SVG 20010904//EN"
 "http://www.w3.org/TR/2001/REC-SVG-20010904/DTD/svg10.dtd">
<svg version="1.0" xmlns="http://www.w3.org/2000/svg"
 width="780.000000pt" height="780.000000pt" viewBox="0 0 780.000000 780.000000"
 preserveAspectRatio="xMidYMid meet">
<metadata>
Created by potrace 1.14, written by Peter Selinger 2001-2017
</metadata>
<g transform="translate(0.000000,780.000000) scale(0.100000,-0.100000)"
fill="#000000" stroke="none">
<path d="M3574 6762 c7 -11 -6 -17 -27 -13 -5 1 -5 -4 -1 -10 5 -8 2 -10 -8
-6 -22 8 -30 -3 -15 -22 11 -14 10 -14 -5 -3 -10 8 -17 17 -16 20 2 19 -4 23
-17 12 -8 -7 -15 -9 -15 -5 0 4 -6 2 -14 -5 -8 -6 -12 -18 -9 -26 3 -8 0 -14
-7 -14 -6 0 -9 4 -6 9 3 5 -1 12 -10 15 -10 4 -13 2 -8 -6 5 -8 2 -9 -10 -5
-14 6 -17 3 -12 -10 6 -14 4 -15 -5 -6 -6 6 -18 9 -25 6 -8 -3 -14 0 -14 6 0
6 -5 11 -11 11 -6 0 -8 -7 -5 -16 3 -9 2 -12 -5 -9 -6 4 -17 -1 -25 -11 -9
-11 -12 -13 -9 -6 5 9 -1 15 -14 19 -11 3 -18 10 -14 16 3 6 1 7 -6 3 -7 -5
-9 -13 -4 -20 4 -7 1 -4 -8 6 -14 15 -18 15 -22 3 -4 -8 -15 -12 -26 -10 -14
3 -18 -1 -14 -12 4 -10 8 -11 13 -3 5 9 9 8 13 -2 3 -9 -2 -14 -14 -15 -10 -1
-19 3 -19 9 0 6 -3 8 -7 4 -5 -4 -8 -12 -8 -17 0 -5 -4 -8 -10 -6 -5 1 -8 8
-7 16 2 7 -1 10 -7 6 -6 -3 -11 -13 -11 -21 0 -8 -5 -12 -10 -9 -6 4 -7 11 -4
17 4 7 2 8 -5 4 -6 -4 -9 -11 -6 -16 3 -4 -3 -14 -13 -21 -15 -13 -16 -12 -3
4 13 17 12 18 -15 11 -16 -3 -33 -11 -39 -17 -7 -7 -6 -8 3 -3 6 4 12 3 12 -2
0 -15 -28 -23 -36 -10 -4 7 -3 8 4 4 8 -5 10 -1 5 10 -6 15 -7 15 -15 0 -8
-14 -12 -15 -25 -4 -15 12 -15 10 -3 -12 9 -19 10 -22 0 -13 -7 6 -19 9 -26 6
-8 -3 -21 0 -29 7 -8 7 -15 11 -16 9 -7 -37 -7 -40 6 -29 9 8 15 8 20 0 6 -10
5 -11 -17 -14 -7 -1 -12 -8 -10 -15 1 -7 -2 -10 -8 -6 -6 3 -8 11 -5 16 4 5 1
9 -5 9 -6 0 -8 5 -4 12 4 7 3 8 -5 4 -6 -4 -9 -12 -5 -17 8 -13 -15 -40 -28
-33 -5 3 -19 -2 -30 -13 l-22 -18 17 25 c9 13 17 29 17 34 0 6 -7 0 -16 -13
-13 -18 -18 -20 -26 -10 -6 10 -7 7 -3 -9 5 -18 2 -25 -14 -29 -11 -3 -18 -9
-15 -14 3 -5 -2 -6 -10 -3 -9 3 -13 11 -9 18 4 6 -1 5 -10 -3 -12 -9 -17 -10
-17 -2 0 7 -5 9 -11 5 -8 -4 -3 -12 12 -21 24 -14 24 -14 2 -10 -15 3 -23 0
-23 -8 0 -18 -27 -38 -34 -26 -9 14 -37 2 -30 -13 3 -6 -2 -2 -11 9 -17 20
-17 20 -11 -1 7 -24 -24 -60 -31 -36 -3 6 -9 12 -14 12 -6 0 -7 -5 -3 -12 5
-8 2 -9 -10 -5 -13 5 -15 2 -12 -18 3 -18 1 -23 -7 -18 -7 4 -21 9 -32 10 -19
3 -19 2 -2 -11 17 -13 16 -14 -17 -12 -19 2 -33 -1 -30 -5 3 -5 1 -9 -5 -9 -5
0 -12 6 -14 13 -3 6 -4 -3 -3 -20 2 -18 0 -31 -4 -28 -4 2 -22 6 -41 9 -19 3
-29 3 -22 0 7 -3 9 -13 6 -22 -5 -15 -4 -15 8 0 11 13 18 15 29 7 13 -9 12
-10 -2 -5 -10 3 -18 2 -18 -2 0 -5 -7 -17 -16 -28 -8 -10 -13 -13 -9 -7 3 7 1
21 -5 30 -10 16 -11 16 -6 1 6 -20 -38 -52 -57 -41 -7 4 -5 -2 3 -12 9 -11 10
-16 3 -11 -7 4 -21 2 -30 -4 -16 -9 -16 -10 -1 -8 9 2 17 -1 17 -7 0 -5 -12
-8 -27 -7 -23 4 -25 2 -13 -12 12 -14 12 -16 -3 -10 -21 8 -49 -15 -41 -35 5
-12 3 -13 -6 -4 -13 13 -39 7 -39 -9 0 -6 6 -5 15 2 8 7 15 8 15 4 0 -5 -9
-15 -20 -22 -12 -7 -18 -17 -15 -22 3 -6 1 -10 -4 -10 -14 0 -14 13 0 27 8 8
7 13 -2 18 -7 5 -10 4 -5 -3 10 -17 -13 -25 -32 -10 -15 11 -15 11 -6 -2 19
-26 23 -47 8 -47 -7 0 -10 5 -7 10 3 6 1 7 -5 3 -6 -4 -9 -13 -6 -20 3 -8 0
-17 -6 -21 -9 -6 -9 -10 1 -17 10 -6 7 -7 -10 -3 -16 5 -21 4 -17 -4 5 -7 1
-8 -10 -4 -14 5 -12 8 11 20 15 8 24 17 21 20 -3 3 -22 -7 -42 -22 l-37 -28
23 -17 c17 -13 18 -17 6 -17 -9 0 -16 4 -16 9 0 5 -5 6 -10 3 -6 -4 -8 -11 -5
-16 3 -5 -1 -6 -10 -3 -13 5 -13 9 -3 23 12 14 11 15 -5 2 -16 -13 -16 -15 -2
-31 15 -16 14 -17 -10 -13 -15 3 -25 1 -25 -6 0 -7 4 -10 8 -7 4 2 14 0 22 -6
12 -8 12 -9 -2 -4 -17 5 -35 -9 -21 -17 5 -2 2 -2 -4 -1 -7 2 -13 -3 -13 -11
0 -8 -5 -15 -10 -15 -7 0 -7 6 0 19 13 25 13 31 0 31 -6 0 -9 -3 -9 -7 5 -28
-1 -35 -18 -22 -15 11 -16 11 -5 -1 17 -19 15 -35 -2 -21 -10 8 -16 9 -21 1
-4 -6 -1 -9 6 -8 6 2 14 -3 16 -9 3 -7 -3 -13 -12 -13 -9 0 -13 -5 -10 -10 4
-6 11 -7 17 -4 7 4 8 2 4 -5 -4 -6 -12 -8 -18 -5 -7 5 -9 2 -5 -8 9 -24 -12
-39 -37 -26 -12 6 -18 7 -14 3 4 -5 2 -15 -5 -24 -10 -14 -10 -14 5 -3 12 10
18 10 24 1 4 -8 3 -9 -4 -5 -7 4 -12 2 -12 -5 0 -6 -8 -9 -19 -6 -12 3 -18 -1
-17 -12 0 -9 -5 -15 -12 -13 -8 1 -11 -2 -8 -7 4 -5 1 -13 -5 -16 -5 -4 -8
-14 -5 -22 4 -10 2 -13 -8 -10 -8 3 -22 -1 -33 -9 -14 -11 -15 -13 -2 -8 21 7
31 -8 17 -26 -8 -12 -9 -11 -4 5 5 16 3 16 -14 -5 -11 -14 -17 -31 -15 -39 5
-11 3 -12 -10 -1 -13 11 -14 10 -9 -4 3 -9 2 -16 -3 -16 -5 0 -10 -7 -11 -15
-1 -8 -3 -21 -4 -28 -2 -16 -28 -19 -28 -4 0 6 -3 8 -6 5 -3 -4 -1 -15 4 -25
11 -21 -2 -45 -30 -56 -11 -4 -15 -13 -11 -26 3 -13 1 -21 -6 -21 -7 0 -9 5
-5 12 4 7 3 8 -5 4 -6 -4 -9 -12 -6 -17 4 -5 1 -9 -5 -9 -6 0 -8 -5 -4 -11 4
-8 9 -7 15 2 4 7 11 10 16 6 9 -9 -17 -28 -29 -21 -4 3 -8 0 -8 -6 0 -6 -5 -8
-12 -4 -7 5 -8 3 -3 -7 14 -21 13 -46 -1 -46 -9 0 -10 5 -3 18 7 14 6 17 -5
13 -17 -6 -15 -26 4 -50 13 -16 13 -17 0 -9 -8 4 -24 15 -35 24 -18 15 -19 15
-7 -1 11 -14 10 -18 -5 -28 -15 -10 -15 -11 -1 -6 9 3 19 2 21 -2 2 -4 2 -1 1
6 -5 19 4 14 17 -9 6 -12 7 -19 1 -15 -10 6 -27 -22 -23 -39 2 -5 -1 -6 -5 -2
-11 11 -14 38 -3 31 5 -3 9 0 9 6 0 17 -25 6 -26 -11 0 -8 3 -22 8 -31 5 -10
4 -19 -2 -23 -6 -4 -7 -11 -4 -17 4 -6 2 -8 -4 -4 -6 3 -14 1 -17 -5 -4 -5
-14 -8 -22 -5 -8 4 -11 1 -8 -5 4 -6 13 -8 19 -6 7 3 19 1 27 -5 11 -8 11 -9
-2 -5 -9 3 -23 -3 -32 -13 -14 -17 -14 -19 1 -23 15 -4 14 -5 -2 -6 -13 -1
-17 -6 -13 -21 3 -11 1 -18 -4 -14 -12 7 -7 -39 6 -48 6 -5 5 -8 -3 -8 -7 0
-11 -4 -8 -8 3 -5 -1 -9 -9 -9 -18 0 -20 14 -2 20 6 3 2 4 -10 4 -17 -1 -20
-5 -12 -18 12 -23 12 -42 0 -34 -5 3 -13 1 -16 -5 -4 -6 -1 -9 6 -8 6 2 14 -3
17 -11 3 -9 0 -11 -7 -6 -9 5 -11 -1 -8 -24 3 -18 1 -29 -4 -25 -5 3 -7 9 -5
13 3 4 0 13 -5 21 -9 13 -9 13 -7 0 1 -8 -4 -26 -11 -39 -8 -14 -9 -21 -2 -17
6 4 11 2 11 -3 0 -6 5 -11 12 -11 9 0 9 3 0 12 -7 7 -12 17 -12 23 0 5 5 2 11
-8 6 -10 15 -14 22 -10 7 4 6 -1 -2 -11 -8 -10 -23 -15 -33 -13 -10 3 -18 1
-18 -4 0 -9 15 -13 33 -10 5 1 6 -3 2 -9 -4 -6 -16 -8 -28 -5 -12 2 -16 2 -9
-1 6 -3 9 -11 5 -16 -4 -7 2 -9 18 -5 22 6 23 5 6 -8 -11 -7 -26 -11 -35 -7
-14 5 -15 4 -2 -10 11 -11 17 -12 22 -4 5 7 8 7 8 0 0 -18 -13 -24 -27 -12
-11 9 -13 8 -11 -3 2 -8 10 -17 18 -21 12 -5 11 -7 -3 -7 -11 -1 -17 -7 -14
-13 2 -7 0 -21 -4 -30 -6 -11 -5 -19 3 -24 7 -5 8 -3 3 6 -5 9 -4 11 4 6 15
-9 4 -27 -12 -20 -8 3 -13 -4 -14 -17 -2 -16 1 -18 12 -9 11 9 12 7 8 -9 -3
-14 0 -21 8 -21 10 -1 9 -4 -3 -10 -10 -6 -15 -19 -13 -30 4 -23 -5 -26 -25
-7 -12 10 -12 9 -1 -5 10 -13 10 -17 -1 -21 -7 -2 -5 -3 5 -1 9 1 15 -2 11 -7
-3 -5 1 -9 8 -10 7 0 3 -5 -9 -11 -28 -14 -36 -34 -19 -50 11 -11 10 -16 -2
-27 -13 -13 -13 -16 4 -28 16 -11 16 -13 1 -13 -11 0 -14 -5 -10 -17 5 -12 3
-14 -7 -8 -9 5 -11 4 -6 -4 4 -6 11 -9 16 -6 5 3 12 0 16 -6 4 -8 3 -9 -4 -5
-7 4 -12 2 -12 -3 0 -6 6 -11 13 -11 8 0 8 -3 1 -8 -17 -11 -24 -41 -12 -48 6
-4 8 -3 4 4 -3 6 -2 13 3 16 13 9 8 -19 -8 -37 -7 -9 -20 -13 -29 -10 -14 4
-15 3 -2 -6 9 -6 18 -7 24 -1 6 6 15 10 21 10 5 0 4 -4 -4 -9 -12 -8 -12 -12
-2 -24 9 -12 9 -17 0 -23 -7 -4 -9 -3 -5 4 3 6 2 13 -3 16 -5 4 -8 -2 -6 -11
1 -10 -3 -24 -9 -32 -8 -11 -8 -13 0 -8 7 4 17 0 24 -8 11 -13 10 -14 -2 -10
-11 5 -14 -3 -12 -40 2 -28 -1 -43 -8 -39 -5 3 -4 -3 3 -14 7 -12 18 -18 24
-16 5 3 1 -2 -9 -10 -18 -15 -18 -16 -2 -16 16 0 16 -1 2 -16 -14 -14 -14 -34
0 -34 3 0 3 4 -1 9 -3 5 0 13 7 17 7 4 10 4 6 -1 -11 -11 11 -47 24 -39 7 5 8
2 4 -5 -5 -7 -18 -16 -30 -21 -14 -6 -16 -9 -5 -9 12 -1 15 -8 11 -28 -2 -16
-10 -34 -16 -42 -8 -11 -8 -13 2 -7 8 5 12 0 12 -13 0 -12 -5 -21 -12 -21 -6
0 -9 -3 -5 -6 9 -9 32 9 32 25 0 8 6 15 13 17 7 1 8 0 2 -3 -5 -2 -10 -9 -10
-14 0 -6 6 -7 13 -3 9 6 9 5 0 -7 -10 -12 -10 -20 2 -36 12 -17 12 -20 0 -20
-8 0 -12 3 -10 7 2 3 -1 12 -6 20 -7 12 -8 10 -6 -7 2 -12 6 -25 9 -29 4 -3 4
-13 1 -22 -4 -9 -2 -13 4 -9 6 4 13 0 17 -8 3 -8 1 -17 -5 -20 -5 -4 -7 -11
-3 -16 3 -5 10 -6 16 -3 7 4 8 2 4 -5 -4 -6 0 -14 9 -17 14 -6 14 -8 -2 -19
-10 -7 -22 -11 -28 -7 -5 3 -4 -1 2 -10 7 -8 9 -19 5 -23 -4 -5 -1 -5 6 -1 7
4 10 11 8 15 -3 3 4 7 14 7 10 0 16 -6 13 -13 -3 -7 -9 -10 -14 -7 -5 3 -9 2
-10 -3 0 -4 -2 -18 -3 -30 -1 -12 2 -21 8 -20 5 1 11 -6 14 -15 2 -13 -2 -16
-18 -13 -11 2 -18 0 -15 -6 4 -5 11 -7 16 -3 6 3 13 -3 16 -14 2 -11 14 -25
26 -31 13 -7 14 -9 5 -7 -10 3 -18 1 -18 -4 0 -6 5 -10 10 -10 6 0 10 -5 10
-11 0 -5 -4 -8 -9 -4 -5 3 -13 0 -17 -6 -4 -8 -3 -9 4 -5 7 4 12 2 12 -3 0 -6
5 -11 11 -11 5 0 8 4 5 8 -3 5 1 9 9 9 22 0 18 -12 -7 -25 -15 -7 -17 -11 -8
-11 13 -1 13 -2 0 -12 -13 -9 -13 -10 0 -6 8 2 14 11 12 18 -2 8 6 4 17 -8 24
-25 28 -42 7 -24 -10 9 -15 8 -19 -3 -3 -7 -1 -18 4 -23 15 -15 18 -47 5 -56
-7 -5 -6 -7 4 -6 28 3 38 -1 44 -17 5 -14 4 -15 -9 -4 -9 7 -18 10 -22 6 -3
-3 -1 -6 6 -6 7 0 9 -5 5 -12 -4 -6 -3 -9 2 -6 5 3 18 2 29 -3 18 -7 18 -8 2
-8 -10 -1 -16 -5 -12 -11 3 -5 13 -7 23 -4 9 3 6 -2 -8 -10 -14 -8 -19 -15
-11 -16 7 0 11 -6 7 -15 -5 -14 4 -19 30 -16 21 2 26 -33 7 -47 -17 -13 -16
-13 6 -7 15 5 21 3 17 -3 -8 -13 4 -43 14 -37 11 7 38 -37 33 -53 -3 -6 -8
-10 -12 -8 -4 3 -8 -1 -8 -7 0 -7 10 -14 21 -15 15 -1 17 1 7 7 -9 6 -10 11
-2 15 6 4 11 2 11 -4 0 -6 5 -8 12 -4 8 5 8 3 2 -7 -14 -22 -12 -66 3 -66 10
0 10 4 0 16 -10 14 -10 14 4 4 9 -7 18 -11 21 -8 2 3 5 -2 5 -10 0 -8 -4 -12
-9 -9 -4 3 -8 1 -8 -4 0 -11 30 -26 45 -23 6 1 4 -3 -2 -10 -17 -17 -17 -34 0
-23 7 5 5 2 -5 -7 -17 -16 -12 -25 15 -27 5 0 17 -10 26 -21 10 -11 22 -17 26
-13 5 4 5 2 2 -4 -4 -7 0 -15 8 -18 8 -3 14 -11 13 -18 -2 -7 3 -12 10 -10 8
1 11 -2 7 -8 -3 -5 -1 -10 6 -10 7 0 9 -3 6 -7 -9 -8 -48 27 -42 37 9 15 -24
19 -35 4 -9 -10 -9 -14 -1 -14 6 0 11 6 11 13 0 8 3 7 10 -3 6 -9 5 -17 -3
-23 -8 -6 -7 -7 4 -4 14 4 59 -32 50 -41 -1 -1 -1 -8 2 -15 3 -9 8 -8 22 3 16
14 17 13 11 -7 -4 -13 -2 -24 5 -29 7 -4 9 -3 5 4 -3 6 -1 14 6 18 7 4 10 4 6
-1 -4 -4 -3 -16 3 -26 7 -15 6 -17 -6 -13 -8 4 -15 2 -15 -3 0 -12 33 -13 41
-1 3 5 9 2 12 -7 4 -9 3 -13 -3 -10 -5 3 -8 -4 -7 -15 1 -11 7 -20 15 -20 7 0
10 5 7 11 -4 6 2 5 14 -2 11 -8 17 -16 13 -19 -4 -3 -8 -12 -10 -20 -3 -11 1
-11 16 3 15 14 19 14 19 2 0 -8 -4 -12 -9 -9 -4 3 -8 0 -8 -5 0 -10 13 -15 31
-13 3 1 6 -6 6 -13 0 -11 -4 -12 -14 -4 -22 19 -14 4 17 -31 30 -33 30 -33 52
-14 13 10 18 12 11 5 -13 -16 -6 -44 10 -34 6 4 7 1 1 -8 -4 -8 -9 -20 -10
-27 -2 -11 1 -10 14 1 14 13 20 13 34 3 10 -7 18 -17 18 -21 0 -4 -6 -3 -13 3
-9 8 -17 8 -27 0 -12 -8 -12 -9 2 -4 22 7 35 -13 17 -25 -8 -5 -9 -9 -3 -9 6
0 17 7 24 15 14 17 30 20 30 4 0 -5 -4 -7 -10 -4 -5 3 -10 -1 -10 -10 0 -9 5
-13 10 -10 6 3 10 -1 10 -10 0 -11 7 -15 22 -13 12 2 23 -3 25 -12 4 -13 3
-13 -7 0 -10 13 -11 12 -6 -3 3 -10 6 -21 6 -24 0 -3 7 0 15 7 9 7 18 10 22 6
3 -3 1 -6 -6 -6 -9 0 -8 -4 3 -15 18 -18 30 -20 20 -2 -5 8 -2 8 9 -2 18 -14
24 -47 8 -36 -5 3 -12 1 -15 -4 -4 -5 1 -8 10 -7 8 1 20 9 25 17 7 11 9 8 9
-10 0 -13 3 -21 7 -18 8 9 39 -34 35 -48 -2 -5 0 -7 4 -2 4 4 16 -1 27 -10 11
-10 17 -13 14 -6 -4 6 -3 14 3 18 5 3 10 1 10 -5 0 -6 4 -8 10 -5 6 3 10 -1
10 -10 0 -10 -5 -13 -12 -9 -7 4 -8 3 -4 -4 4 -7 14 -12 22 -12 10 0 12 5 8
13 -5 8 -2 8 9 -2 11 -9 17 -10 17 -2 0 6 5 11 11 11 8 0 8 -5 -1 -15 -7 -8
-16 -12 -21 -9 -5 3 -9 1 -9 -5 0 -5 9 -9 20 -8 11 1 20 5 20 10 0 4 5 5 11 1
8 -5 8 -9 -1 -14 -9 -5 -9 -9 -1 -14 6 -4 8 -12 5 -18 -4 -7 -2 -8 5 -4 6 4 9
11 6 16 -3 4 1 10 9 13 10 4 12 0 9 -14 -5 -18 11 -27 20 -11 2 4 2 1 0 -6 -2
-9 4 -12 20 -8 12 3 17 3 10 0 -13 -6 -6 -34 9 -34 5 0 7 4 3 9 -3 5 0 13 6
17 7 4 9 3 6 -3 -4 -6 4 -19 18 -29 13 -10 21 -22 18 -27 -3 -6 -1 -7 6 -3 8
6 9 12 2 20 -8 9 -7 13 4 13 7 0 14 -3 13 -6 -2 -21 3 -41 10 -38 9 6 33 -18
26 -27 -2 -3 2 -2 8 4 16 14 31 13 22 -2 -5 -7 -3 -8 6 -3 10 6 12 4 6 -10 -5
-15 -4 -16 9 -5 12 10 13 16 4 26 -20 24 -1 15 26 -12 14 -14 30 -22 35 -19 5
3 7 0 4 -8 -5 -13 12 -35 29 -36 4 0 20 -7 36 -15 16 -9 31 -12 35 -9 3 4 6 1
6 -4 0 -12 25 -12 36 0 15 14 26 6 13 -9 -18 -22 3 -33 55 -27 32 4 38 2 26
-7 -12 -9 -11 -10 7 -5 15 4 25 0 33 -12 9 -15 10 -14 5 7 -4 16 -3 20 3 12 5
-7 17 -10 28 -6 18 6 18 6 -1 -9 -14 -11 -15 -15 -5 -14 8 2 20 6 26 9 6 4 11
1 11 -7 0 -8 -3 -12 -7 -10 -3 2 -12 -1 -20 -7 -13 -8 -12 -9 1 -5 9 3 22 0
28 -6 7 -7 12 -7 11 -2 -5 26 2 38 10 18 7 -16 14 -21 26 -16 12 5 15 3 9 -6
-6 -10 -3 -11 13 -2 27 14 35 14 26 -1 -6 -10 -4 -10 7 -2 18 14 52 14 62 0 5
-8 10 -7 16 2 6 11 10 10 15 -3 8 -22 8 -25 -5 -25 -5 0 -8 4 -5 9 3 4 -6 7
-19 5 -14 -1 -23 1 -20 6 8 12 -23 6 -37 -8 -9 -9 -9 -12 0 -12 7 0 12 5 12
11 0 8 5 8 15 -1 8 -7 15 -9 15 -5 0 4 11 0 25 -9 14 -9 25 -12 25 -7 0 16 48
19 63 4 12 -12 16 -12 22 -2 5 8 4 10 -3 5 -8 -5 -10 -1 -5 10 5 14 8 13 19
-7 7 -13 13 -18 14 -11 0 10 4 10 16 -2 21 -21 27 -20 15 2 -7 14 -6 19 4 19
8 0 12 -4 9 -9 -3 -4 -1 -8 5 -8 5 0 8 -9 6 -20 -2 -12 0 -18 6 -15 5 4 7 11
4 16 -4 5 -1 9 5 9 6 0 15 -10 21 -22 9 -21 9 -21 4 4 -3 15 -1 29 3 32 5 3 9
0 10 -7 2 -24 8 -47 14 -53 4 -3 5 6 4 21 -2 16 1 24 8 22 6 -2 10 -13 8 -23
-2 -11 0 -15 5 -8 10 13 43 14 43 2 0 -5 4 -7 9 -4 5 4 12 0 14 -6 4 -10 6
-10 6 0 1 7 6 10 13 6 7 -4 8 -3 4 4 -4 7 -3 12 3 12 6 0 8 8 5 17 -5 17 -5
17 6 0 12 -19 34 -13 24 6 -3 7 7 -1 22 -18 25 -27 27 -28 22 -8 -4 13 -2 26
3 29 5 3 9 2 8 -3 -4 -22 2 -44 10 -38 5 3 12 1 16 -5 3 -5 11 -10 18 -10 6 0
1 7 -11 16 -12 8 -22 20 -22 25 0 6 7 3 16 -5 19 -20 25 -20 18 -1 -4 8 -1 15
5 15 6 0 10 -3 10 -7 -4 -25 4 -31 41 -29 21 2 45 7 52 13 16 12 49 13 42 1
-3 -5 -10 -6 -15 -3 -5 4 -16 -1 -25 -9 -8 -9 -11 -16 -5 -16 5 0 12 4 15 9 4
5 14 8 24 7 26 -5 33 16 14 39 -13 16 -12 15 9 -3 14 -12 29 -19 34 -15 4 5 5
2 1 -4 -5 -9 -2 -11 8 -7 9 3 16 2 16 -4 0 -5 7 -13 16 -16 14 -5 15 -4 4 9
-7 9 -10 19 -6 22 10 11 37 12 30 2 -3 -5 -10 -6 -16 -3 -6 4 -8 2 -5 -4 10
-14 47 -3 41 13 -3 7 -1 15 4 19 10 6 10 -24 -1 -40 -3 -6 0 -11 8 -11 8 0 12
4 9 9 -3 4 -1 8 5 8 5 0 14 -7 19 -16 6 -11 11 -13 16 -5 4 6 3 11 -2 11 -5 0
-9 7 -9 15 0 22 12 18 27 -10 20 -37 24 -23 6 17 -15 31 -15 31 0 11 l16 -23
32 23 c37 26 30 26 53 4 16 -14 20 -14 20 -2 0 8 -5 11 -10 8 -6 -3 -7 -1 -3
5 9 15 34 5 39 -16 4 -16 5 -16 6 -1 1 11 12 18 35 21 20 2 32 0 29 -6 -4 -5
-1 -6 7 -1 7 4 16 2 22 -6 7 -11 8 -10 6 5 -2 10 3 21 11 24 9 3 11 0 6 -8 -5
-8 -3 -11 6 -8 8 3 13 13 11 23 -3 13 1 16 12 11 47 -19 51 -19 31 -3 -19 15
-18 15 18 7 29 -6 37 -5 34 4 -3 7 1 13 9 13 7 0 11 -4 8 -8 -2 -4 1 -11 7
-15 8 -5 9 -3 4 6 -6 10 -4 12 10 6 18 -6 18 -6 -1 16 -16 20 -17 21 -1 8 16
-12 20 -12 28 1 8 10 9 8 4 -8 -4 -14 -2 -23 4 -23 6 0 12 7 12 15 1 8 2 20 3
27 1 12 46 20 46 8 0 -15 -14 -19 -29 -7 -14 11 -14 10 -2 -6 13 -16 15 -16
32 -1 10 9 16 22 13 28 -3 6 2 2 10 -8 14 -17 20 -15 17 6 -1 10 26 3 45 -12
16 -13 17 -13 9 0 -13 20 -15 41 -5 35 5 -3 11 -1 15 5 3 5 15 10 26 10 10 0
19 5 19 12 0 6 3 8 7 4 5 -4 -1 -14 -11 -22 -11 -8 -15 -14 -10 -14 6 0 15 5
21 11 8 8 13 8 18 -1 9 -14 35 6 35 26 0 13 18 19 48 15 6 -1 12 3 12 8 0 5
-9 8 -20 6 -11 -2 -22 0 -24 4 -7 11 48 9 56 -3 4 -6 8 -1 8 12 0 12 5 22 11
22 5 0 8 -4 5 -8 -2 -4 0 -14 6 -22 8 -12 9 -11 4 4 -5 14 -2 17 10 12 15 -6
15 -4 3 11 -12 15 -12 16 5 10 16 -6 17 -5 7 7 -9 11 -9 16 0 22 7 4 9 3 6 -3
-4 -6 4 -13 18 -15 26 -5 35 6 13 15 -10 4 -10 6 -1 6 6 1 14 -3 18 -9 4 -6
15 -5 30 2 13 6 22 15 18 21 -3 5 -9 3 -14 -4 -7 -12 -10 -12 -21 0 -10 11
-10 12 0 7 7 -4 15 -1 18 8 3 9 10 16 16 16 5 0 6 -5 3 -10 -3 -6 3 -10 14
-10 12 0 21 5 21 11 0 5 -4 7 -10 4 -6 -3 -7 1 -4 10 6 14 8 14 19 -2 8 -10
17 -14 21 -10 5 4 2 13 -6 18 -12 8 -10 10 8 6 12 -3 22 -1 22 4 0 5 -6 9 -12
9 -7 1 -2 7 12 15 14 8 34 11 45 8 18 -5 19 -4 5 12 -9 11 -10 16 -2 11 8 -5
12 -1 12 11 0 15 2 15 9 3 6 -8 7 -19 4 -25 -4 -5 6 1 20 14 26 24 38 49 17
36 -16 -10 -11 1 7 16 9 8 14 9 10 3 -4 -7 0 -17 7 -23 12 -10 13 -9 10 7 -6
22 20 49 31 32 4 -6 1 -9 -6 -8 -6 2 -14 -4 -16 -12 -4 -12 -3 -12 5 -2 5 8
13 13 18 13 5 0 8 10 8 24 -1 13 3 22 8 19 4 -3 6 -10 3 -15 -4 -5 -1 -9 5 -9
6 0 8 -5 4 -12 -4 -7 -3 -8 4 -4 6 4 9 13 6 20 -3 8 5 16 21 20 14 4 23 11 20
16 -4 7 -13 6 -25 0 -10 -6 -21 -6 -24 -2 -3 5 1 9 9 10 8 1 22 3 30 4 8 1 16
5 16 10 1 4 2 12 3 17 0 5 4 12 8 16 4 4 5 -8 3 -26 -3 -22 -1 -29 4 -20 5 8
14 10 21 6 8 -5 11 -4 7 2 -4 6 0 16 9 23 8 7 13 19 10 27 -3 7 1 13 10 13 9
0 12 -5 8 -13 -4 -6 4 -2 18 11 13 12 27 19 30 16 8 -8 4 18 -4 31 -4 6 -2 17
4 25 8 12 9 12 4 -2 -3 -10 -1 -18 4 -18 6 0 10 5 10 11 0 8 5 7 15 -1 13 -11
14 -10 9 5 -5 13 -4 16 5 10 11 -6 11 -3 0 16 -11 21 -11 23 3 11 13 -10 17
-10 22 4 3 9 4 20 0 25 -3 5 0 9 5 9 6 0 11 -4 11 -10 0 -5 4 -10 8 -10 5 0 9
7 9 15 0 8 -5 15 -11 15 -6 0 4 10 21 23 18 12 33 29 34 37 0 10 2 11 6 3 2
-7 12 -13 20 -13 14 0 13 3 -3 23 -10 12 -12 16 -4 9 19 -16 35 -15 21 2 -9
11 -7 13 12 11 15 -2 24 2 24 11 0 10 -7 12 -21 8 -25 -8 -20 -1 13 16 13 6
21 7 17 2 -3 -6 -1 -14 5 -18 8 -5 10 4 7 29 l-4 35 31 -15 30 -15 -30 27
c-16 15 -23 23 -15 19 25 -14 39 -13 33 2 -3 8 -10 11 -16 7 -6 -3 -7 -1 -3 6
6 9 11 9 22 0 11 -9 14 -9 14 0 0 7 4 10 9 6 5 -3 12 -1 16 4 3 6 -3 8 -15 6
-11 -2 -23 1 -26 7 -4 7 -2 8 4 4 7 -4 12 -2 12 4 0 6 5 8 10 5 6 -3 10 -1 10
4 0 6 3 10 8 9 4 -2 18 5 32 15 13 9 20 17 14 17 -5 0 -15 -5 -21 -11 -7 -7
-12 -6 -17 6 -3 9 -2 14 3 11 10 -7 23 22 16 34 -3 5 -1 11 4 14 5 4 8 -4 7
-17 -2 -13 2 -24 9 -24 7 0 10 8 8 17 -3 10 7 22 29 33 30 16 27 16 -22 0 -9
-3 -8 1 4 11 11 9 16 16 11 16 -4 0 0 9 10 20 10 11 19 28 20 38 0 9 5 17 10
17 6 0 9 -2 8 -5 -1 -3 -5 -13 -9 -24 -5 -13 -3 -17 7 -14 7 2 14 18 14 34 1
37 13 57 31 50 8 -3 11 0 7 9 -3 8 -9 13 -13 10 -5 -3 -11 -1 -14 4 -4 6 7 8
26 6 24 -3 29 -2 18 5 -8 5 -11 10 -6 10 5 0 4 6 -2 13 -8 9 -8 17 0 27 8 12
9 12 4 -2 -6 -20 18 -25 30 -6 4 7 3 8 -4 4 -7 -4 -12 -2 -12 3 0 10 14 15 33
12 5 -1 6 3 2 9 -3 6 -10 8 -15 5 -5 -3 -12 0 -16 6 -4 7 -3 9 3 6 12 -8 26
20 18 34 -4 5 2 6 11 2 12 -4 15 -3 10 5 -4 7 -3 12 3 12 5 0 11 -3 14 -7 2
-5 2 -2 1 4 -2 7 4 17 14 22 9 5 13 13 9 17 -4 4 -13 -1 -21 -11 -10 -14 -15
-15 -21 -5 -5 8 -4 11 2 7 13 -8 26 20 17 35 -4 6 3 5 15 -1 25 -14 27 -8 5
13 -10 10 -11 16 -4 16 7 0 9 7 5 18 -5 14 -4 15 6 5 7 -7 20 -13 28 -13 11 0
11 3 -4 13 -14 11 -15 16 -5 22 8 5 11 4 7 -2 -3 -5 0 -10 8 -10 11 0 11 4 -1
23 -10 15 -12 24 -4 29 6 3 7 11 4 17 -5 7 -2 8 6 3 10 -6 12 -4 6 10 -5 15
-4 16 8 6 11 -9 16 -9 22 0 4 8 3 9 -4 5 -16 -10 -15 7 1 23 10 11 9 13 -4 8
-9 -3 -16 0 -16 8 0 7 8 10 18 8 9 -3 20 0 24 7 4 7 2 10 -6 8 -8 -1 -14 2
-14 7 0 6 10 10 21 9 22 -1 25 10 10 34 -4 7 -9 26 -11 42 -3 25 -2 28 9 17
11 -9 11 -16 2 -27 -9 -13 -9 -13 6 -2 17 13 18 28 5 50 -5 7 -3 12 7 12 9 0
16 5 16 11 0 5 -4 8 -8 5 -5 -3 -9 1 -9 10 0 10 7 12 21 8 15 -4 17 -3 7 4
-11 8 -11 10 0 15 10 4 10 6 2 6 -7 1 -13 6 -13 12 0 5 5 7 10 4 6 -3 10 -1
10 4 0 6 -4 11 -10 11 -5 0 -10 5 -10 11 0 5 5 7 10 4 6 -3 10 -1 10 5 0 6 5
8 13 4 8 -5 8 -2 -2 9 -7 9 -21 17 -30 18 -9 0 -11 3 -4 5 7 3 22 0 35 -7 19
-9 21 -9 11 2 -10 10 -9 17 5 33 17 21 17 21 -6 2 -22 -19 -22 -19 -19 2 2 12
7 25 12 29 4 5 5 2 0 -6 -6 -10 -4 -12 4 -7 8 5 9 12 2 19 -15 19 -15 21 -1
47 8 14 13 28 12 33 -1 4 1 7 6 7 4 0 6 18 4 40 -2 22 -9 40 -15 40 -6 0 -1 7
12 16 17 12 21 22 16 41 -3 15 -2 22 4 19 5 -4 13 -1 17 5 4 8 3 9 -4 5 -7 -4
-12 -2 -12 5 0 9 -3 9 -14 0 -10 -8 -16 -9 -21 -1 -4 6 -1 9 7 8 7 -2 12 3 10
10 -2 10 4 12 20 7 23 -7 23 -7 3 9 -18 14 -18 15 -2 16 9 0 17 5 17 11 0 5
-4 8 -9 4 -5 -3 -12 -1 -16 5 -3 5 -2 10 3 10 4 0 8 20 7 45 -1 24 1 42 6 40
4 -3 9 1 11 8 6 15 -1 39 -10 33 -4 -2 -7 6 -7 19 0 13 3 21 8 18 4 -2 7 3 7
12 0 9 -4 14 -8 11 -5 -3 -9 1 -9 9 0 8 4 12 9 9 4 -3 8 4 8 16 0 12 -4 19 -8
16 -5 -3 -9 1 -9 9 0 8 4 12 9 9 10 -6 11 10 1 20 -4 3 -7 15 -8 26 -1 15 1
17 12 8 11 -8 12 -7 7 6 -3 9 -11 16 -18 16 -6 0 -4 5 4 10 13 9 13 10 0 10
-13 0 -13 1 0 10 13 8 12 10 -3 10 -10 0 -15 5 -12 10 4 6 12 7 18 3 7 -4 6 0
-2 10 -13 16 -8 22 13 18 5 -1 4 5 -3 13 -15 18 -35 11 -25 -7 4 -7 4 -9 -1
-5 -4 4 -15 2 -24 -5 -8 -6 -5 1 7 17 24 32 29 51 10 40 -7 -4 -10 -4 -6 1 4
4 2 15 -5 24 -9 12 -4 11 18 -3 27 -17 28 -18 15 -2 -17 22 -22 46 -8 46 6 0
4 10 -4 23 -8 12 -14 30 -12 39 1 11 -3 15 -12 11 -10 -4 -12 0 -8 11 3 9 10
13 15 10 5 -3 6 2 3 10 -3 9 -10 16 -16 16 -5 0 -6 6 -1 13 11 18 13 38 2 31
-5 -3 -9 0 -9 6 0 6 -5 8 -12 4 -7 -4 -8 -3 -4 5 4 6 11 9 16 6 5 -3 12 -1 15
5 4 6 1 9 -7 8 -7 -2 -12 3 -11 10 2 6 -2 12 -7 12 -6 0 -10 7 -10 15 0 8 -8
15 -17 16 -13 0 -14 2 -4 6 8 3 20 -2 28 -13 12 -16 13 -16 13 -1 0 9 -5 17
-11 17 -5 0 -8 4 -5 8 7 12 -12 38 -21 29 -4 -5 -1 -12 7 -17 9 -6 10 -10 3
-10 -23 0 -25 22 -4 41 23 21 29 38 8 21 -10 -8 -16 -6 -26 10 -11 18 -11 20
3 15 13 -5 14 -2 5 19 -5 14 -7 30 -3 35 3 5 1 9 -5 9 -5 0 -11 -6 -14 -12 -3
-10 -8 -10 -18 1 -8 8 -9 12 -4 9 6 -3 17 3 26 12 16 17 15 19 -10 29 -23 10
-24 10 -8 -3 17 -13 17 -14 0 -18 -14 -4 -18 1 -18 23 -1 22 2 26 15 19 12 -6
17 -5 17 5 0 8 -4 12 -9 9 -4 -3 -8 0 -8 6 0 6 -5 8 -10 5 -7 -4 -10 7 -8 30
2 28 -3 42 -20 55 -12 10 -22 28 -22 40 0 14 -4 19 -12 14 -9 -5 -8 -2 1 10
12 15 12 19 -4 34 -10 9 -15 11 -11 5 4 -7 2 -13 -4 -13 -7 0 -9 8 -5 21 4 12
3 19 -2 16 -5 -3 -15 -1 -23 5 -12 8 -12 9 2 4 14 -4 17 0 16 19 -1 13 -6 21
-10 19 -5 -3 -6 -9 -4 -13 3 -4 -1 -8 -9 -8 -8 0 -13 3 -12 6 1 3 -5 17 -12
31 l-12 25 18 -22 c16 -20 19 -20 33 -5 13 14 12 15 -3 9 -15 -6 -17 -3 -12
16 5 17 4 19 -4 7 -9 -13 -11 -13 -11 2 0 9 -5 20 -12 24 -7 4 -8 3 -4 -4 4
-7 3 -12 -3 -12 -5 0 -12 4 -15 9 -10 15 26 22 43 9 14 -12 15 -11 2 5 -8 10
-20 16 -27 13 -10 -4 -13 3 -10 24 2 16 -1 27 -5 24 -8 -5 -13 9 -11 28 1 3
-5 9 -14 12 -11 4 -12 2 -4 -13 7 -14 5 -22 -8 -32 -15 -13 -16 -12 -3 4 10
13 10 17 1 17 -8 0 -11 13 -8 39 2 30 0 37 -8 30 -9 -7 -14 -4 -19 10 -3 12
-12 21 -20 21 -7 0 -16 7 -19 16 -3 8 -11 12 -17 8 -14 -8 -5 9 20 41 10 13
11 16 1 8 -19 -18 -31 -16 -23 3 4 10 -1 17 -16 21 -15 4 -20 11 -17 29 3 17
1 21 -11 17 -11 -4 -11 -8 -3 -13 9 -5 9 -9 1 -14 -11 -7 -15 5 -12 32 2 11
-19 17 -44 12 -5 -1 -5 4 2 11 14 14 5 42 -11 32 -6 -4 -4 2 4 12 8 10 10 16
5 13 -6 -4 -17 -3 -25 3 -13 7 -12 9 3 9 9 0 17 4 17 10 0 5 -7 6 -17 3 -10
-4 -14 -2 -10 4 4 6 0 16 -7 22 -11 9 -16 9 -22 0 -5 -8 -3 -9 6 -4 9 6 11 4
5 -5 -5 -9 -4 -11 3 -6 8 5 10 1 5 -10 -5 -15 -7 -15 -15 0 -5 9 -14 13 -20
10 -6 -4 -4 3 5 17 9 13 17 28 17 34 0 5 -5 2 -11 -8 -9 -16 -13 -15 -40 14
-30 33 -39 50 -15 30 11 -9 16 -9 22 0 4 8 3 9 -5 5 -6 -4 -14 0 -17 8 -5 12
-10 13 -26 5 -15 -8 -19 -8 -14 0 4 6 2 11 -4 11 -6 0 -8 5 -4 11 5 8 9 8 14
-1 5 -8 9 -8 13 3 4 10 0 14 -11 12 -9 -1 -21 3 -25 9 -6 8 -10 7 -14 -1 -2
-7 -10 -13 -16 -13 -8 0 -7 4 1 12 16 16 15 31 0 22 -10 -6 -10 -4 0 8 10 13
10 17 -3 22 -8 3 -14 11 -13 18 2 7 -2 12 -9 13 -14 0 -28 13 -28 26 0 5 -3 9
-7 9 -5 0 -11 0 -15 0 -3 0 2 -9 12 -20 10 -11 13 -20 7 -20 -7 0 -12 5 -12
11 0 5 -5 7 -10 4 -6 -4 -10 -3 -9 2 3 18 -1 36 -8 30 -11 -12 -32 14 -26 31
6 15 5 15 -10 3 -10 -8 -20 -11 -24 -7 -3 3 0 6 8 7 8 0 4 4 -9 10 -13 5 -20
13 -17 19 3 6 -1 17 -9 26 -9 9 -14 19 -12 23 3 4 -7 8 -22 9 -25 2 -45 19
-37 32 2 4 -1 7 -8 8 -12 2 -58 10 -66 11 -2 1 2 8 9 16 10 12 7 14 -19 10
-17 -2 -29 0 -26 5 3 5 -1 12 -8 17 -8 4 -19 17 -26 28 -10 16 -11 17 -7 2 4
-11 2 -16 -5 -11 -6 3 -9 14 -6 24 4 15 0 17 -21 14 -22 -4 -23 -3 -13 10 11
13 10 15 -8 11 -12 -2 -24 3 -30 13 -8 14 -11 14 -27 2 -15 -13 -16 -13 -9 -1
6 11 4 13 -8 8 -10 -3 -17 -2 -17 4 0 6 -9 22 -19 35 -15 20 -20 21 -25 9 -4
-13 -10 -14 -26 -5 -11 6 -20 8 -20 4 0 -3 -7 -1 -15 6 -8 7 -15 18 -15 24 0
6 5 4 10 -4 5 -8 10 -10 10 -4 0 11 -28 39 -39 39 -3 0 -5 3 -4 6 1 3 -4 6
-12 6 -8 0 -12 -4 -9 -8 2 -4 1 -9 -3 -12 -5 -2 -3 -2 4 -1 7 2 15 -1 18 -7 4
-5 11 -6 17 -3 7 4 8 2 4 -5 -6 -8 -12 -9 -20 -2 -7 6 -16 8 -19 4 -8 -8 -37
16 -37 31 0 6 5 4 10 -4 5 -8 10 -10 10 -5 0 6 -5 17 -10 25 -6 10 -10 11 -10
3 0 -7 -11 -12 -25 -11 -22 2 -26 13 -4 13 14 0 6 19 -9 21 -6 1 -9 -2 -6 -7
7 -11 -36 -5 -63 9 -10 5 -26 8 -35 7 -10 -2 -18 1 -18 6 0 5 12 7 26 5 15 -3
24 -2 20 1 -4 4 -12 8 -19 9 -7 1 -21 6 -31 10 -14 5 -17 4 -11 -5 6 -10 3
-11 -14 -2 -12 7 -26 9 -32 5 -6 -3 -19 2 -31 13 -11 10 -22 17 -24 16 -15
-10 -25 -1 -14 12 7 9 10 18 6 22 -3 3 -6 1 -6 -5 0 -7 -9 -12 -21 -12 -15 0
-19 5 -15 15 3 8 1 15 -4 15 -6 0 -10 -8 -10 -17 0 -15 -2 -15 -9 -4 -5 8 -17
16 -25 17 -9 1 -13 -2 -10 -8 4 -7 2 -8 -4 -4 -7 4 -12 1 -12 -6 0 -8 -3 -9
-8 -3 -13 19 -50 35 -56 24 -2 -5 -3 -4 -2 2 1 7 10 13 20 15 30 4 30 13 0 10
-18 -2 -38 5 -54 18 -17 15 -20 16 -11 4 12 -16 10 -18 -21 -18 -19 0 -40 -6
-48 -12 -8 -7 -6 -3 4 10 11 12 14 22 8 22 -6 0 -14 -4 -17 -10 -3 -5 -11 -10
-16 -10 -6 0 -7 5 -3 12 4 7 3 8 -4 4 -7 -4 -12 -2 -12 4 0 6 -5 8 -10 5 -8
-5 -7 -11 1 -21 20 -25 1 -15 -25 12 l-24 27 -13 -22 c-17 -27 -24 -27 -26 1
-2 16 0 19 6 10 7 -11 9 -11 14 1 5 14 -15 18 -28 5 -8 -7 -54 3 -61 14 -3 5
-14 0 -24 -12 l-18 -21 -10 28 c-8 21 -11 23 -11 9 -1 -20 -1 -20 -17 0 -8 10
-13 14 -10 7 4 -6 2 -14 -4 -18 -5 -3 -10 -1 -10 4 0 6 -5 11 -11 11 -5 0 -8
-4 -5 -8 3 -5 -1 -9 -10 -9 -10 0 -12 7 -8 21 4 16 3 17 -4 7 -6 -8 -19 -12
-31 -8 -13 3 -25 -1 -31 -11 -8 -14 -10 -15 -11 -2 -1 8 -1 19 0 24 1 5 -4 4
-12 -3 -16 -13 -38 -11 -50 4 -5 6 -6 -1 -2 -15 5 -22 5 -23 -8 -8 -12 15 -14
15 -25 0 -7 -9 -11 -12 -8 -7 3 6 1 17 -5 25 -7 12 -9 11 -9 -4 0 -15 -3 -17
-11 -9 -11 11 -18 11 -56 -3 -36 -13 -74 -11 -69 3 3 8 1 11 -5 8 -5 -4 -18
-1 -27 6 -16 13 -16 12 0 -6 16 -19 15 -20 -8 -21 -13 -1 -24 2 -24 8 0 5 5 6
12 2 6 -4 8 -3 5 3 -7 11 -43 10 -54 -2 -5 -4 -3 -5 4 -1 6 3 14 2 17 -3 7
-10 -20 -9 -30 2 -4 3 -16 1 -27 -5 -17 -9 -19 -8 -14 6 3 8 1 18 -5 22 -7 4
-8 3 -4 -4z m276 -22 c0 -5 -5 -10 -11 -10 -5 0 -7 5 -4 10 3 6 8 10 11 10 2
0 4 -4 4 -10z m-354 -20 c0 -12 -4 -16 -9 -11 -5 5 -6 14 -3 20 10 15 12 14
12 -9z m71 1 c0 -11 -5 -18 -9 -15 -4 3 -5 11 -1 19 7 21 12 19 10 -4z m484 2
c13 -16 12 -17 -3 -4 -10 7 -18 15 -18 17 0 8 8 3 21 -13z m-584 -15 c-3 -8
-6 -5 -6 6 -1 11 2 17 5 13 3 -3 4 -12 1 -19z m858 2 c3 -5 1 -10 -4 -10 -6 0
-11 5 -11 10 0 6 2 10 4 10 3 0 8 -4 11 -10z m-1090 -30 c-3 -5 -1 -10 6 -10
7 0 10 -3 6 -6 -9 -9 -28 6 -22 17 4 5 8 9 11 9 3 0 2 -4 -1 -10z m1269 -20
c-8 -8 -15 -5 -25 7 -13 17 -13 17 5 3 18 -14 19 -13 12 5 -6 16 -5 18 5 8 9
-9 10 -16 3 -23z m-1534 -80 c0 -5 -5 -10 -11 -10 -5 0 -7 5 -4 10 3 6 8 10
11 10 2 0 4 -4 4 -10z m2210 -182 c0 -5 -7 -3 -15 6 -8 8 -15 18 -15 22 0 3 7
1 15 -6 8 -7 15 -17 15 -22z m75 -38 c4 -6 11 -8 16 -5 5 3 6 -2 2 -11 -6 -16
-7 -16 -19 1 -7 10 -18 14 -25 9 -8 -4 -10 -3 -5 4 9 15 23 15 31 2z m223
-165 c-3 -3 -9 2 -12 12 -6 14 -5 15 5 6 7 -7 10 -15 7 -18z m61 -34 c11 -19
4 -34 -10 -25 -4 2 -5 12 -2 22 6 15 5 15 -10 3 -15 -12 -17 -12 -11 3 8 21
21 20 33 -3z m-3309 -5 c0 -2 -7 -7 -16 -10 -8 -3 -12 -2 -9 4 6 10 25 14 25
6z m1599 -73 c-3 -20 2 -24 16 -13 13 11 14 10 9 -5 -6 -14 -4 -16 7 -9 8 5
19 9 24 9 6 1 9 6 8 13 -4 17 2 15 18 -5 8 -10 9 -14 2 -10 -6 4 -14 3 -18 -3
-4 -6 -10 -8 -14 -6 -4 3 -8 -1 -8 -9 0 -12 3 -12 15 -3 20 17 55 21 46 6 -5
-10 -4 -10 6 -1 11 10 17 10 28 0 13 -10 14 -9 2 13 -13 25 -13 25 8 7 12 -11
26 -16 33 -11 19 11 119 13 119 2 0 -5 -4 -6 -10 -3 -16 10 -11 -1 7 -16 9 -8
14 -9 10 -3 -10 18 36 34 56 20 13 -10 14 -15 4 -25 -9 -10 -8 -11 6 -6 9 4
17 11 17 16 0 5 5 9 11 9 5 0 7 -4 4 -10 -3 -5 -1 -10 4 -10 6 0 11 5 11 10 0
6 4 10 8 10 5 0 9 -7 9 -15 0 -8 -3 -12 -7 -10 -3 2 -12 -1 -20 -7 -12 -8 -12
-9 2 -4 10 3 20 1 23 -4 3 -5 13 -6 22 -3 12 5 14 3 8 -8 -6 -11 -5 -12 5 -2
11 10 17 10 29 0 14 -10 14 -10 3 5 -11 14 -11 16 7 11 13 -3 21 -1 21 8 0 7
3 9 6 6 4 -4 2 -13 -4 -20 -9 -10 -8 -14 3 -14 8 0 15 7 15 16 0 10 5 6 13 -9
7 -14 18 -26 25 -26 7 -1 16 -2 21 -3 5 0 12 -9 14 -18 4 -17 5 -17 6 -1 1 19
-32 42 -43 30 -4 -3 -4 2 0 13 5 11 9 14 12 7 2 -7 10 -12 18 -12 8 0 14 -5
14 -11 0 -8 6 -7 18 2 15 13 16 12 3 -4 -8 -9 -11 -21 -7 -24 4 -4 10 -3 14 2
10 14 42 18 42 5 0 -6 4 -8 10 -5 5 3 7 0 4 -9 -4 -11 0 -13 15 -9 18 4 20 2
14 -13 -6 -17 -5 -17 10 -5 15 12 18 10 26 -10 9 -22 10 -22 11 -4 1 19 2 18
10 -2 6 -15 15 -21 25 -17 8 3 15 1 15 -5 0 -6 -6 -11 -12 -11 -7 0 -5 -5 5
-11 10 -6 21 -8 24 -5 4 3 1 6 -6 6 -7 0 -9 5 -6 10 4 6 1 18 -6 26 -10 12 -9
13 5 8 9 -3 16 -12 16 -20 0 -8 5 -14 11 -14 5 0 7 -4 4 -10 -5 -9 1 -12 21
-9 4 0 11 -5 16 -13 8 -10 9 -9 4 4 -3 10 0 20 6 24 7 4 8 3 4 -4 -6 -10 4
-16 25 -14 3 0 10 -8 17 -19 7 -10 9 -19 5 -18 -19 3 -33 -2 -33 -12 0 -6 5
-7 13 -2 25 16 47 14 40 -5 -5 -14 -3 -13 11 3 10 11 15 14 11 8 -3 -7 -1 -13
4 -13 6 0 10 -3 10 -7 -4 -25 2 -35 14 -25 10 8 16 6 26 -9 12 -20 24 -19 27
2 3 19 4 20 14 14 7 -4 7 -13 0 -26 -6 -10 -7 -19 -3 -18 28 5 42 -2 36 -18
-6 -16 -5 -17 12 -3 11 9 16 10 11 3 -4 -7 -3 -13 1 -13 5 0 15 6 22 13 9 8
12 8 7 0 -3 -6 -1 -13 6 -16 7 -2 5 -3 -4 -2 -22 4 -24 -11 -2 -19 8 -3 12
-11 8 -17 -4 -7 -3 -9 4 -5 6 3 14 -3 17 -15 5 -16 13 -20 31 -16 16 3 24 0
24 -9 0 -17 12 -18 30 -1 12 10 12 9 2 -3 -9 -13 -14 -60 -6 -60 2 0 10 7 18
16 15 14 16 14 17 -3 1 -10 1 -22 0 -27 -1 -5 4 -4 11 2 10 7 18 8 28 0 12 -8
12 -9 -3 -4 -10 3 -16 2 -12 -3 3 -5 -1 -12 -7 -15 -7 -3 -3 -3 10 0 13 3 33
-1 46 -9 21 -14 26 -25 27 -69 0 -16 17 -23 43 -19 5 1 6 -5 3 -13 -4 -10 -1
-13 8 -9 8 3 12 10 8 16 -4 6 -1 7 6 3 9 -6 8 -13 -6 -29 -10 -11 -12 -17 -6
-13 7 4 25 0 40 -8 16 -8 23 -15 18 -16 -17 0 -15 -38 2 -44 9 -4 22 1 30 11
13 16 13 16 3 -4 -8 -18 -7 -24 7 -32 10 -6 13 -11 6 -11 -6 0 -15 5 -18 10
-3 6 -14 9 -23 9 -15 -1 -15 -2 1 -6 9 -2 17 -9 17 -14 0 -5 7 -9 15 -9 9 0
18 -12 22 -30 3 -16 10 -30 15 -30 5 0 7 4 4 8 -2 4 0 14 6 22 8 13 9 12 5 -2
-3 -9 -3 -19 1 -23 4 -4 7 -12 7 -18 1 -7 7 -11 14 -9 7 1 10 -2 7 -7 -3 -5 1
-14 9 -21 17 -14 20 -30 4 -30 -5 0 -7 5 -3 12 5 7 3 8 -6 3 -11 -7 -9 -12 8
-23 23 -15 32 -49 10 -36 -9 5 -9 2 1 -9 7 -9 10 -17 7 -17 -4 0 -4 -5 -1 -10
4 -6 11 -8 16 -4 7 4 6 10 0 18 -7 9 -4 12 12 13 12 0 16 -1 9 -4 -6 -3 -9 -9
-6 -14 3 -6 1 -16 -6 -24 -9 -11 -7 -13 12 -9 13 2 17 2 11 -2 -15 -7 0 -26
31 -37 14 -6 16 -10 7 -21 -9 -11 -9 -15 1 -18 11 -4 11 -8 0 -20 -10 -13 -10
-18 -1 -24 8 -5 10 -3 4 7 -6 11 -5 12 5 2 11 -10 17 -10 29 0 18 13 -15 -30
-39 -52 -13 -12 -13 -13 2 -8 12 4 22 -1 29 -15 10 -18 9 -20 -5 -15 -8 3 -18
3 -20 -2 -7 -10 26 -11 39 0 7 5 9 -4 7 -28 -3 -25 -1 -34 7 -29 6 4 11 2 11
-4 0 -6 5 -8 12 -4 7 5 8 3 4 -5 -5 -7 -15 -10 -23 -7 -8 3 -11 1 -8 -4 3 -6
12 -10 19 -10 15 0 17 -30 3 -47 -6 -9 -6 -13 1 -13 6 0 14 5 17 10 3 6 12 10
18 10 9 0 9 -2 1 -8 -6 -4 -10 -15 -8 -25 1 -9 -2 -15 -7 -11 -5 3 -6 10 -3
16 4 6 3 8 -3 5 -14 -9 -9 -50 8 -55 11 -3 11 -1 -1 7 -9 7 -10 11 -3 11 20 0
24 -18 6 -29 -15 -9 -15 -10 -2 -11 12 0 14 -8 11 -31 -3 -20 -1 -29 5 -26 6
4 19 0 29 -9 18 -14 18 -15 -2 -5 -31 15 -49 -8 -29 -35 8 -10 15 -14 15 -9 0
6 -5 16 -12 23 -9 9 -9 12 0 12 7 0 12 -4 12 -10 0 -5 8 -10 18 -11 9 0 12 -3
5 -5 -6 -3 -9 -16 -7 -30 2 -13 0 -24 -5 -24 -6 0 -8 9 -6 20 2 12 0 18 -6 14
-5 -3 -16 -2 -22 3 -7 4 -4 0 8 -11 11 -10 19 -20 18 -22 -7 -11 -2 -24 7 -19
6 3 10 1 10 -4 0 -6 -4 -11 -10 -11 -5 0 -10 -5 -10 -11 0 -5 4 -8 8 -5 4 2
14 1 22 -5 11 -6 12 -9 2 -9 -7 0 -10 -5 -7 -10 3 -6 -1 -13 -10 -16 -14 -6
-13 -8 5 -21 21 -15 27 -33 10 -33 -6 0 -9 5 -8 11 2 6 -7 15 -20 20 -15 6
-21 5 -17 -1 3 -6 12 -10 19 -10 7 0 13 -7 13 -15 0 -8 -4 -15 -9 -15 -5 0 -3
-7 6 -15 8 -8 13 -25 11 -37 -3 -12 1 -28 8 -37 10 -12 9 -13 -2 -6 -11 6 -13
3 -9 -13 4 -15 2 -22 -7 -22 -8 0 -17 -5 -21 -12 -4 -7 -3 -8 4 -4 22 13 34
-5 15 -21 -16 -13 -16 -14 -1 -9 12 3 15 1 11 -9 -3 -8 -10 -12 -16 -8 -6 3
-7 1 -3 -6 6 -9 11 -9 21 -1 18 15 15 -11 -4 -34 -12 -15 -8 -20 12 -17 4 0 7
-4 7 -9 0 -6 -12 -8 -27 -5 -26 5 -26 5 -5 -4 12 -6 22 -13 22 -16 0 -4 -4 -3
-10 0 -5 3 -10 -2 -10 -11 0 -16 -1 -16 -16 2 -14 18 -15 18 -4 -3 12 -26 21
-28 39 -10 10 10 11 8 5 -6 -5 -13 -14 -17 -29 -15 -13 3 -22 0 -22 -9 0 -7 3
-13 7 -13 4 0 7 -6 8 -12 4 -47 8 -58 19 -54 7 3 15 1 17 -3 3 -4 -7 -8 -21
-7 -14 1 -28 7 -31 15 -3 9 0 11 8 6 9 -6 11 -4 5 4 -5 8 -11 9 -17 3 -13 -13
9 -55 26 -49 7 3 13 -1 13 -8 0 -8 -7 -11 -15 -7 -11 4 -13 1 -8 -9 4 -8 0 -5
-9 6 -17 20 -17 20 -10 -2 4 -14 2 -23 -5 -23 -6 0 -8 -5 -4 -11 4 -8 9 -7 15
2 4 7 11 11 14 7 4 -3 -3 -16 -15 -28 -11 -11 -18 -26 -14 -32 4 -6 -1 -17
-11 -25 -15 -10 -15 -13 -4 -13 8 0 21 6 29 13 12 10 12 9 2 -4 -6 -9 -10 -18
-7 -21 8 -8 -29 -3 -45 6 -12 7 -13 6 -3 -4 10 -11 10 -17 0 -29 -8 -11 -5
-10 10 2 16 14 23 15 29 6 5 -8 3 -10 -6 -4 -10 6 -12 4 -7 -9 5 -11 3 -15 -5
-10 -8 5 -9 2 -5 -10 6 -14 3 -16 -16 -11 -15 4 -18 4 -8 -3 8 -6 10 -15 5
-23 -12 -20 -16 -51 -5 -44 5 3 13 0 17 -6 4 -8 3 -9 -4 -5 -11 7 -17 -6 -13
-27 1 -5 -3 -5 -9 -2 -6 4 -9 13 -6 21 3 7 1 16 -5 20 -17 10 -22 -3 -10 -25
7 -11 7 -22 2 -25 -5 -4 -11 0 -14 6 -2 7 -3 -3 -2 -22 2 -19 4 -35 5 -35 1 0
3 -8 5 -17 2 -10 -2 -16 -8 -15 -7 1 -12 -6 -12 -15 0 -9 -4 -20 -9 -25 -5 -4
-7 -3 -3 2 3 6 -4 17 -16 25 -20 12 -21 11 -9 -2 13 -17 13 -80 0 -72 -5 3 -6
10 -3 15 4 5 1 9 -5 9 -7 0 -9 -8 -5 -20 6 -19 -8 -29 -18 -12 -2 4 -2 1 -1
-5 2 -7 -2 -13 -9 -13 -7 -1 -1 -7 13 -15 14 -8 22 -14 18 -15 -3 0 -15 -3
-25 -6 -15 -5 -15 -4 -3 5 12 8 11 10 -7 8 -16 -1 -19 -5 -12 -13 7 -8 6 -14
-3 -18 -7 -3 -2 -3 12 0 23 5 23 4 8 -9 -13 -10 -14 -17 -6 -25 8 -8 5 -9 -10
-5 -12 3 -20 9 -17 12 2 4 -2 8 -10 8 -8 0 -11 -5 -8 -11 4 -5 7 -20 8 -32 0
-17 -3 -20 -11 -13 -15 13 -25 -10 -13 -32 5 -11 3 -16 -6 -16 -8 0 -12 4 -9
8 2 4 0 10 -5 13 -5 4 -8 -1 -7 -10 1 -8 9 -20 17 -25 9 -6 3 -7 -18 -5 -18 3
-32 1 -32 -2 4 -28 -1 -34 -18 -21 -17 13 -17 12 -4 -4 14 -18 15 -18 31 4 11
14 20 18 24 11 4 -6 -2 -16 -13 -22 -14 -7 -18 -16 -14 -28 6 -16 6 -16 -11 1
-22 22 -33 22 -15 0 12 -15 12 -16 -3 -10 -11 4 -17 2 -15 -6 1 -7 -4 -11 -11
-9 -8 1 -11 -2 -7 -9 5 -8 10 -8 18 0 6 6 16 11 22 11 5 0 2 -5 -8 -11 -9 -6
-15 -15 -11 -21 4 -7 0 -6 -14 1 -15 8 -23 6 -36 -8 -13 -14 -14 -21 -5 -27 8
-5 10 -3 4 6 -6 9 -4 11 4 5 9 -5 9 -11 3 -17 -6 -6 -9 -16 -8 -22 2 -6 1 -8
-1 -3 -3 4 -10 4 -16 0 -7 -4 -5 2 3 13 14 18 14 18 -3 5 -10 -8 -16 -20 -13
-28 3 -7 1 -13 -5 -13 -6 0 -8 -4 -5 -9 3 -5 -2 -8 -11 -7 -9 0 -18 -5 -20
-12 -3 -8 1 -10 14 -6 13 5 12 2 -5 -10 -12 -10 -19 -22 -16 -28 4 -7 2 -8 -5
-4 -6 4 -9 11 -6 16 3 5 0 12 -6 16 -7 4 -9 3 -6 -3 10 -15 -16 -44 -40 -46
-12 0 -21 -4 -20 -7 1 -3 -2 -6 -6 -7 -14 -4 -58 -61 -55 -73 2 -6 -7 -19 -20
-27 -22 -15 -23 -15 -29 7 l-6 24 -10 -25 c-6 -13 -9 -30 -8 -36 1 -7 -5 -13
-14 -13 -10 0 -13 5 -9 13 4 6 -3 3 -15 -8 -12 -10 -20 -26 -18 -35 5 -20 -30
-20 -42 -1 -6 9 -10 8 -16 -6 -5 -10 -7 -23 -6 -29 2 -16 -35 -24 -49 -10 -9
8 -11 7 -8 -4 2 -10 -4 -14 -20 -12 -21 2 -22 1 -8 -14 21 -21 20 -30 -1 -13
-14 12 -16 12 -11 -1 4 -11 0 -16 -12 -16 -10 0 -17 3 -14 7 2 4 -3 6 -12 5
-17 -3 -35 -26 -28 -37 2 -4 0 -10 -5 -13 -5 -4 -13 -1 -17 5 -5 8 -3 9 7 4 8
-5 10 -4 6 0 -4 5 -14 10 -22 11 -12 2 -13 -2 -4 -18 7 -13 7 -18 1 -14 -6 3
-12 3 -15 -1 -2 -5 -2 -2 0 5 1 7 -2 10 -7 7 -5 -3 -20 -1 -32 5 -22 11 -22
10 -4 -4 11 -9 17 -19 13 -22 -4 -4 -14 -1 -24 7 -11 9 -14 10 -9 2 7 -12 -5
-18 -27 -14 -5 1 -6 -3 -3 -7 3 -5 -4 -18 -17 -28 -18 -16 -19 -16 -8 -1 14
18 12 21 -13 11 -9 -3 -13 -11 -9 -18 4 -8 2 -8 -7 1 -8 7 -20 9 -35 3 -13 -5
-25 -6 -28 -3 -3 3 -3 -4 0 -16 3 -13 1 -21 -6 -21 -7 0 -9 5 -5 13 6 8 3 8
-9 -1 -9 -8 -22 -10 -28 -6 -9 5 -10 2 -6 -9 4 -11 2 -14 -8 -10 -8 3 -12 10
-8 16 3 6 1 7 -6 3 -6 -4 -19 -2 -28 6 -14 11 -16 11 -8 -1 11 -19 13 -61 3
-55 -4 3 -8 14 -8 24 0 10 -5 22 -12 26 -7 5 -8 3 -3 -6 6 -10 1 -11 -21 -6
-24 5 -26 4 -11 -5 29 -17 4 -40 -33 -29 -19 6 -32 5 -36 -2 -4 -6 -2 -8 4 -4
6 3 14 1 18 -5 4 -8 3 -9 -4 -5 -7 4 -12 1 -12 -6 0 -9 -3 -9 -8 -2 -9 13 -54
26 -46 13 3 -5 0 -9 -6 -9 -6 0 -8 -5 -4 -12 4 -7 3 -8 -4 -4 -6 4 -9 12 -6
19 5 15 -33 21 -41 6 -3 -5 1 -6 9 -3 18 7 19 4 10 -20 -6 -15 -7 -15 -19 0
-7 10 -25 17 -44 16 -33 -1 -65 -24 -53 -38 4 -5 0 -3 -9 4 -22 17 -57 23 -64
12 -3 -5 3 -7 15 -5 11 2 22 1 24 -3 3 -4 -11 -8 -30 -8 -36 0 -41 5 -23 23 8
8 7 13 -2 18 -7 5 -10 4 -6 -2 4 -6 0 -16 -8 -23 -8 -7 -12 -16 -9 -21 3 -5
-2 -6 -11 -2 -13 4 -14 7 -3 14 8 5 1 7 -17 4 -17 -2 -34 -4 -38 -4 -5 -1 -6
-4 -4 -9 3 -4 -5 -7 -18 -7 -15 0 -22 5 -20 15 2 12 -6 15 -40 13 -24 -1 -47
-3 -52 -4 -4 -1 -14 -1 -21 0 -15 1 -6 21 9 21 6 0 7 -5 3 -12 -5 -7 -3 -8 5
-3 9 5 10 10 2 18 -7 7 -14 7 -24 -1 -8 -7 -16 -9 -20 -6 -10 10 -57 12 -57 2
0 -5 -5 -6 -10 -3 -6 4 -8 10 -5 15 6 9 -10 7 -39 -5 -12 -5 -21 -3 -27 6 -6
10 -9 10 -9 2 0 -7 -9 -13 -20 -13 -11 0 -20 5 -20 10 0 6 -8 10 -17 10 -15 0
-16 -2 -3 -10 8 -5 10 -10 4 -10 -6 0 -19 9 -29 20 -10 11 -22 17 -26 14 -20
-12 -46 -11 -46 2 0 10 4 11 14 3 9 -9 13 -8 13 0 0 7 5 9 10 6 6 -3 10 -1 10
5 0 7 -7 9 -16 6 -9 -4 -23 -1 -31 6 -11 9 -13 9 -11 -2 2 -7 -3 -15 -11 -18
-10 -3 -12 0 -8 11 3 9 1 19 -5 23 -7 4 -8 3 -4 -4 8 -13 -6 -17 -18 -5 -13
13 -36 11 -36 -3 0 -8 -4 -14 -9 -14 -5 0 -7 12 -5 27 l5 27 -19 -22 c-11 -12
-23 -22 -27 -22 -5 0 0 9 9 19 21 23 10 32 -31 25 -24 -4 -32 -1 -36 13 -3 13
-5 11 -7 -7 -1 -23 -2 -23 -10 -5 -5 11 -9 14 -9 8 -1 -7 -5 -13 -11 -13 -12
0 -9 22 5 33 9 8 1 7 -42 -9 -14 -5 -14 -4 2 9 11 8 17 19 12 23 -4 4 -7 2 -7
-5 0 -9 -4 -9 -14 1 -8 7 -11 18 -8 23 3 6 -2 4 -11 -3 -9 -8 -20 -11 -26 -8
-5 3 -12 0 -14 -6 -4 -9 -6 -10 -6 -1 -1 6 4 15 9 18 13 8 13 25 -1 25 -5 0
-7 -4 -4 -10 3 -5 -1 -10 -9 -10 -9 0 -15 5 -13 12 3 17 -34 16 -58 -2 -16
-11 -17 -11 -7 0 17 20 15 31 -5 23 -11 -4 -14 -3 -9 6 5 7 -2 21 -17 35 -21
19 -26 20 -34 7 -8 -12 -11 -12 -18 -1 -6 9 -4 11 5 5 9 -6 11 -4 5 5 -6 10
-11 9 -23 -6 -13 -16 -14 -17 -9 -1 4 10 1 17 -6 17 -8 0 -6 4 3 10 8 5 10 10
4 10 -5 0 -16 -6 -23 -12 -11 -10 -13 -10 -7 0 5 7 1 12 -9 12 -25 0 -62 33
-57 50 4 13 3 13 -11 2 -9 -8 -22 -10 -28 -6 -9 5 -7 11 7 22 19 14 18 15 -1
8 -34 -12 -37 -12 -40 7 -3 14 0 16 10 7 9 -8 14 -7 18 3 4 11 -2 13 -25 11
-25 -3 -28 -1 -19 10 10 12 8 13 -8 9 -12 -3 -18 -10 -14 -17 3 -6 2 -7 -3 -3
-5 5 -9 12 -9 15 0 4 -4 14 -10 22 -7 13 -6 13 7 2 11 -9 18 -10 23 -2 4 6 1
9 -7 8 -7 -2 -12 2 -11 9 3 14 -27 6 -40 -11 -5 -6 -5 -1 -2 12 4 13 2 22 -4
22 -6 0 -11 -5 -11 -11 0 -5 -5 -7 -11 -3 -7 4 -7 9 -2 13 5 3 13 15 16 25 6
14 4 16 -5 9 -7 -5 -24 -10 -38 -11 -17 -1 -20 2 -12 7 11 6 10 10 -5 15 -17
7 -17 8 2 23 20 15 20 15 -2 8 -19 -5 -22 -3 -16 11 5 13 3 15 -8 8 -23 -14
-42 -14 -30 0 6 7 8 16 4 20 -4 4 1 4 12 1 16 -6 17 -5 5 4 -8 6 -24 8 -35 5
-16 -4 -17 -3 -5 5 11 8 12 11 2 11 -8 0 -10 5 -5 13 11 18 13 38 2 32 -4 -3
-17 3 -29 15 -11 11 -17 20 -14 20 4 0 1 6 -5 13 -6 8 -9 16 -6 18 2 3 -6 6
-18 6 -17 2 -19 0 -7 -7 11 -7 11 -10 2 -10 -7 0 -10 -5 -6 -12 4 -6 3 -8 -4
-4 -6 3 -8 18 -6 32 4 20 1 25 -9 21 -11 -4 -13 0 -10 14 3 11 0 19 -6 19 -7
0 -9 5 -5 13 5 7 0 6 -11 -3 -17 -14 -17 -14 -8 5 13 23 -4 55 -28 55 -11 -1
-11 -3 1 -13 15 -12 20 -32 10 -39 -3 -1 -4 -1 -3 1 1 2 -3 13 -9 25 -7 11
-12 25 -13 29 0 4 -6 11 -13 16 -11 7 -10 9 3 14 9 4 14 3 11 -2 -3 -5 1 -12
9 -15 13 -4 13 -2 5 14 -5 10 -15 22 -22 26 -7 4 -8 3 -4 -4 4 -7 2 -12 -3
-12 -15 0 -14 23 2 39 10 10 9 12 -3 9 -9 -2 -14 3 -12 12 2 8 0 11 -4 7 -13
-13 -13 -38 -1 -30 7 3 8 2 4 -2 -11 -13 -36 -15 -43 -4 -3 5 -2 8 3 7 4 -2
10 2 11 7 2 6 8 18 13 27 8 14 6 16 -7 11 -12 -4 -15 -3 -10 5 4 8 0 12 -11
13 -16 0 -16 1 2 9 17 7 18 9 2 9 -14 1 -16 7 -12 31 4 24 2 30 -12 30 -10 0
-14 -4 -8 -8 10 -7 19 -32 11 -32 -2 0 -11 12 -21 26 -9 15 -12 23 -6 20 19
-12 12 6 -10 25 -19 16 -20 19 -5 25 23 9 20 19 -11 39 -24 16 -26 16 -20 1 4
-11 3 -15 -4 -11 -5 4 -7 16 -3 27 5 16 3 19 -7 13 -8 -5 -5 1 5 13 16 18 16
22 4 22 -11 0 -15 9 -13 30 1 16 -1 28 -5 25 -4 -3 -10 5 -13 16 -3 12 -10 19
-15 15 -5 -3 -9 1 -9 9 0 8 4 12 9 9 4 -3 8 -1 8 5 0 5 -5 12 -10 14 -6 3 -5
4 2 3 7 -2 12 -11 12 -20 -1 -9 2 -16 6 -16 4 0 8 16 7 36 -1 20 -3 32 -5 25
-2 -6 -13 -11 -25 -10 -21 0 -21 1 -2 9 11 5 15 9 9 9 -7 1 -15 8 -18 17 -5
13 -4 14 7 6 11 -9 13 -7 12 8 -1 11 -5 23 -10 27 -4 5 -5 2 -1 -4 4 -7 5 -13
1 -13 -13 0 -22 46 -11 59 8 11 8 13 -1 8 -13 -8 -12 30 2 52 6 10 4 12 -5 6
-10 -6 -12 -4 -7 8 9 23 -2 47 -22 47 -13 0 -14 2 -1 9 8 6 19 7 25 4 5 -3 4
0 -2 7 -9 9 -9 17 -3 26 7 8 6 13 -4 17 -10 4 -13 1 -9 -9 3 -7 1 -14 -5 -14
-6 0 -9 8 -8 18 2 9 -2 21 -8 25 -6 5 0 6 14 2 21 -5 22 -4 8 5 -21 13 -24 31
-5 26 6 -1 9 -1 5 1 -5 3 -8 16 -8 29 0 14 -4 23 -8 20 -5 -3 -8 10 -8 29 1
28 3 32 15 22 12 -9 13 -9 7 1 -4 7 -3 19 3 26 8 10 7 17 -4 26 -10 9 -15 9
-15 1 0 -6 5 -11 11 -11 5 0 7 -4 4 -10 -12 -19 -21 -10 -21 20 0 22 4 29 13
25 8 -2 11 0 8 6 -4 5 -1 16 5 24 8 10 9 15 2 15 -6 0 -9 13 -7 30 2 17 0 28
-4 25 -5 -2 -7 -20 -5 -40 1 -19 -1 -35 -5 -35 -10 0 -8 61 2 77 4 6 4 18 1
26 -3 8 0 18 7 23 8 5 10 3 4 -7 -7 -11 -6 -12 7 -2 8 7 19 9 23 5 5 -4 5 -1
1 6 -4 7 -11 10 -15 8 -4 -3 -13 -1 -21 5 -12 7 -11 9 5 9 16 0 17 2 5 9 -8 6
-18 7 -22 5 -4 -3 -8 0 -8 6 0 6 8 9 18 6 9 -3 24 -1 32 4 12 8 10 10 -9 8
-15 -2 -25 3 -26 13 -2 9 3 16 11 16 7 0 11 -4 8 -9 -3 -4 -1 -8 4 -8 6 0 13
7 16 16 3 8 2 12 -4 9 -6 -3 -10 -2 -10 4 0 6 -8 8 -17 5 -14 -4 -14 -3 2 7
19 12 19 12 0 21 -14 6 -11 7 10 2 16 -3 27 -2 23 2 -4 4 -2 14 5 23 10 14 10
14 -3 5 -12 -9 -19 -7 -35 9 l-20 20 22 -12 c14 -7 24 -8 28 -1 3 5 2 10 -4
10 -6 0 -7 8 -4 18 6 15 5 16 -12 2 -18 -14 -18 -14 0 12 11 15 24 28 29 28 5
0 3 -7 -4 -15 -11 -13 -10 -14 4 -9 10 4 15 13 12 20 -3 7 -1 16 5 20 6 3 8
12 5 19 -2 7 -2 16 2 19 3 4 7 16 9 28 3 16 0 18 -10 10 -10 -9 -13 -6 -12 13
0 13 4 27 8 31 4 5 5 2 2 -7 -4 -10 1 -15 17 -16 13 -1 18 1 13 5 -6 4 -12 16
-13 26 -3 18 -2 18 14 5 10 -7 15 -9 11 -2 -4 6 -3 14 2 18 6 3 7 13 4 22 -4
11 -3 14 5 9 8 -5 10 -2 6 8 -4 10 -1 16 7 16 8 0 5 6 -7 16 -14 11 -15 14 -3
11 9 -3 22 -1 30 5 11 8 10 9 -3 4 -12 -3 -22 2 -29 16 -6 11 -7 18 -1 14 14
-9 57 36 59 62 1 13 -3 20 -8 16 -6 -3 -8 -12 -5 -20 4 -12 2 -12 -14 -4 -11
6 -20 14 -20 17 0 3 3 3 7 0 8 -9 34 13 28 23 -3 5 5 6 17 3 13 -3 19 -1 13 4
-5 4 -11 14 -13 22 -3 12 -1 12 13 1 14 -12 15 -10 5 14 -5 15 -6 25 -1 22 5
-3 21 6 37 20 27 26 27 26 3 20 -22 -6 -22 -6 -7 7 10 8 15 17 11 20 -6 7 18
11 47 8 13 -2 13 -1 0 8 -8 5 -17 8 -21 5 -4 -2 -11 0 -14 6 -4 6 -3 10 2 9
20 -3 27 2 13 11 -11 7 -11 10 -2 10 7 0 10 5 6 12 -4 7 -3 8 5 4 6 -4 9 -11
7 -15 -3 -4 0 -13 6 -21 8 -13 9 -12 5 1 -7 21 21 62 35 53 7 -5 8 -2 4 5 -6
9 -13 8 -29 -6 -12 -10 -19 -14 -15 -9 4 5 2 16 -5 25 -10 14 -10 14 4 3 13
-10 19 -9 29 3 10 12 10 15 -1 15 -12 0 -12 2 -1 9 8 4 13 12 13 17 -1 5 4 9
9 9 6 0 10 5 11 10 1 15 30 45 43 45 6 0 4 -5 -4 -10 -9 -6 -10 -10 -3 -10 19
0 26 20 9 26 -9 3 -13 11 -10 16 4 6 10 5 15 -3 4 -7 11 -10 15 -6 4 3 1 15
-7 24 -11 15 -11 16 1 6 16 -14 40 0 40 24 0 8 5 11 10 8 6 -4 7 -11 4 -17 -4
-7 -2 -8 4 -4 9 5 9 13 1 28 -11 21 -1 36 29 39 27 3 31 4 39 13 4 5 3 6 -3 3
-7 -4 -14 -1 -17 7 -4 10 0 12 14 9 11 -3 19 0 19 6 0 7 -4 10 -8 7 -5 -3 -9
1 -9 9 0 8 5 11 11 8 6 -4 19 -8 28 -8 17 -2 17 0 3 21 -11 17 -12 25 -3 30 7
4 8 3 4 -4 -4 -7 -3 -12 3 -12 5 0 12 6 15 13 3 6 3 1 0 -13 -6 -23 -6 -23 11
-7 14 15 15 20 3 34 -11 14 -11 16 2 8 27 -17 47 -15 25 2 -17 14 -18 15 -2 9
15 -5 17 -2 12 16 -6 18 -5 19 8 7 8 -8 13 -18 10 -24 -2 -5 2 -2 10 7 8 10
17 15 20 11 4 -3 7 -1 7 6 0 8 -8 10 -22 7 -13 -3 -17 -3 -10 0 6 3 10 10 7
15 -4 5 1 6 9 3 11 -4 16 0 17 12 1 14 3 13 9 -6 5 -15 8 -18 9 -9 1 22 25 31
42 16 11 -10 11 -9 1 4 -6 9 -10 19 -7 23 3 3 -1 2 -7 -4 -7 -5 -17 -10 -23
-10 -5 0 -2 5 8 11 9 6 15 15 11 21 -4 7 0 7 12 0 21 -11 44 -6 44 10 0 7 -5
6 -14 -1 -17 -15 -28 -1 -15 19 5 8 9 10 9 4 0 -6 10 -11 23 -10 13 1 21 -4
19 -12 -1 -8 2 -11 9 -7 7 5 3 16 -13 33 -13 15 -16 21 -8 15 32 -23 91 1 112
45 7 15 15 25 18 23 9 -8 51 20 45 29 -3 6 0 7 8 4 8 -3 18 -1 21 5 4 6 14 7
23 4 12 -5 14 -3 9 8 -4 8 0 5 10 -6 16 -20 16 -20 11 1 -2 12 0 28 5 35 8 11
9 10 5 -3 -4 -12 0 -16 13 -15 10 1 16 5 14 9 -3 4 0 8 6 8 6 0 8 5 4 12 -4 7
-3 8 5 4 6 -4 8 -12 5 -18 -4 -6 -2 -8 4 -4 5 3 13 0 16 -6 3 -7 3 -3 0 10 -5
20 -3 21 21 12 16 -6 24 -6 20 0 -7 11 29 32 41 22 5 -4 2 2 -6 12 -12 15 -12
18 -1 12 8 -5 17 -3 23 5 8 11 9 10 4 -3 -3 -12 -1 -15 9 -11 8 3 12 10 8 17
-3 6 3 3 14 -7 16 -14 20 -14 20 -2 0 8 -4 12 -9 9 -4 -3 -5 2 -1 12 5 14 7
14 17 -4 10 -17 13 -18 24 -5 8 8 11 22 7 31 -5 13 -4 14 6 5 9 -9 17 -9 33 0
29 15 38 16 57 0 14 -11 18 -11 28 1 11 13 9 15 -9 11 -13 -2 -20 -1 -16 2 9
9 38 13 48 7 5 -3 3 -13 -4 -22 -12 -15 -11 -16 5 -3 10 8 15 21 12 29 -4 12
-3 13 10 2 12 -10 15 -10 15 4 0 9 5 16 11 16 5 0 8 -4 4 -9 -3 -5 0 -13 6
-17 8 -4 9 -3 5 4 -4 6 4 16 16 23 22 12 22 11 8 -7 -14 -18 -14 -18 3 -5 9 7
17 11 17 7 0 -3 11 -1 24 4 13 5 27 6 30 2 11 -11 44 -9 40 3 -3 6 5 11 17 12
17 2 19 -1 10 -10 -6 -6 -11 -16 -11 -21 0 -7 3 -8 8 -1 12 17 47 41 38 28 -4
-8 -1 -13 8 -13 9 0 16 -5 16 -12 0 -6 3 -8 6 -5 4 4 2 13 -4 20 -7 8 -9 16
-6 20 9 9 35 -4 28 -14 -3 -5 4 -9 15 -9 12 0 21 5 21 11 0 5 -6 7 -12 3 -9
-5 -9 -2 1 9 14 18 22 22 20 10z m115 -9 c3 -8 2 -12 -4 -9 -6 3 -10 10 -10
16 0 14 7 11 14 -7z m76 12 c0 -2 -8 -10 -17 -17 -16 -13 -17 -12 -4 4 13 16
21 21 21 13z m-372 -31 c-3 -3 -9 2 -12 12 -6 14 -5 15 5 6 7 -7 10 -15 7 -18z
m642 -25 c-6 -11 -13 -20 -16 -20 -2 0 0 9 6 20 6 11 13 20 16 20 2 0 0 -9 -6
-20z m1425 -18 c-3 -3 0 -11 6 -19 9 -9 8 -13 0 -13 -6 0 -11 5 -11 11 0 5 -4
8 -8 5 -5 -3 -9 1 -9 8 0 7 6 13 14 13 7 0 11 -3 8 -5z m-3681 -20 c3 -5 -1
-9 -9 -9 -8 0 -12 4 -9 9 3 4 7 8 9 8 2 0 6 -4 9 -8z m1281 -1 c3 -5 2 -12 -3
-15 -5 -3 -9 1 -9 9 0 17 3 19 12 6z m-145 -53 c0 6 5 12 11 12 8 0 8 -5 -1
-15 -13 -16 -30 -11 -30 8 0 7 4 6 10 -3 6 -10 10 -11 10 -2z m-276 -151 c-9
-25 -38 -35 -53 -19 -12 12 -11 13 9 7 16 -5 20 -4 16 4 -5 7 -2 10 6 9 7 -2
12 3 10 10 -1 8 2 11 7 7 6 -3 8 -11 5 -18z m2009 0 c7 3 9 3 5 -2 -4 -4 -3
-17 3 -29 10 -21 10 -21 -6 -1 -9 11 -22 19 -28 18 -7 -2 -13 6 -14 17 -2 18
0 19 13 5 9 -8 21 -12 27 -8z m-3123 -107 c0 -5 -5 -10 -11 -10 -5 0 -7 5 -4
10 3 6 8 10 11 10 2 0 4 -4 4 -10z m3290 -25 c7 -8 16 -12 21 -9 5 3 9 0 9 -5
0 -6 -4 -11 -10 -11 -5 0 -12 0 -15 0 -3 0 -4 2 -2 5 1 2 -7 11 -18 19 -11 9
-15 16 -9 16 6 0 17 -7 24 -15z m963 -52 c-3 -7 -6 -13 -8 -13 -2 0 -5 6 -8
13 -3 8 1 14 8 14 7 0 11 -6 8 -14z m-4303 -17 c0 -3 -4 -8 -10 -11 -5 -3 -10
-1 -10 4 0 6 5 11 10 11 6 0 10 -2 10 -4z m4385 -115 c-6 -5 -25 10 -25 20 0
5 6 4 14 -3 8 -7 12 -15 11 -17z m-3621 11 c3 -5 -1 -9 -9 -9 -8 0 -12 4 -9 9
3 4 7 8 9 8 2 0 6 -4 9 -8z m2816 -26 c0 -2 -7 -7 -16 -10 -8 -3 -12 -2 -9 4
6 10 25 14 25 6z m0 -36 c0 -5 -7 -7 -15 -4 -8 4 -15 8 -15 10 0 2 7 4 15 4 8
0 15 -4 15 -10z m-2880 -20 c0 -5 -5 -10 -11 -10 -5 0 -7 5 -4 10 3 6 8 10 11
10 2 0 4 -4 4 -10z m3743 -5 c4 -8 3 -16 -1 -19 -4 -3 -9 4 -9 15 -2 23 3 25
10 4z m-776 -80 c0 -8 -4 -12 -9 -9 -5 3 -6 10 -3 15 9 13 12 11 12 -6z m918
-235 c-3 -4 0 -11 5 -13 6 -3 5 -4 -1 -3 -7 1 -13 10 -15 19 -1 9 2 15 7 11 5
-3 7 -9 4 -14z m-4110 0 c3 -5 1 -10 -4 -10 -6 0 -11 5 -11 10 0 6 2 10 4 10
3 0 8 -4 11 -10z m3457 -227 c-10 -4 -10 -8 0 -21 12 -15 11 -16 -4 -3 -19 14
-15 32 5 30 8 0 8 -2 -1 -6z m-3566 -38 c-10 -15 -12 -25 -6 -25 6 0 8 -5 4
-11 -4 -7 -9 -8 -17 0 -7 7 -6 15 3 26 10 12 10 15 -1 16 -11 0 13 15 30 18 2
1 -4 -10 -13 -24z m-36 -139 c0 -3 -4 -8 -10 -11 -5 -3 -10 -1 -10 4 0 6 5 11
10 11 6 0 10 -2 10 -4z m-720 -36 c0 -5 -2 -10 -4 -10 -3 0 -8 5 -11 10 -3 6
-1 10 4 10 6 0 11 -4 11 -10z m710 0 c0 -5 -8 -10 -17 -10 -15 0 -16 2 -3 10
19 12 20 12 20 0z m4401 -99 c8 -34 5 -49 -8 -44 -12 5 -12 7 -1 14 10 6 9 11
-6 22 -16 12 -16 14 -2 14 9 0 17 -3 17 -6z m-10 -594 c-10 -9 -11 -8 -5 6 3
10 9 15 12 12 3 -3 0 -11 -7 -18z m-4444 -13 c-3 -3 -12 -4 -19 -1 -8 3 -5 6
6 6 11 1 17 -2 13 -5z m13 -55 c0 -5 -6 -9 -13 -9 -8 0 -14 6 -14 14 0 8 6 12
14 9 7 -3 13 -9 13 -14z m-4 -46 c-2 -9 -9 -19 -17 -21 -9 -2 -10 -1 -3 5 6 4
10 16 8 26 -1 9 1 15 6 12 5 -3 7 -13 6 -22z m-684 -21 c-7 -2 -10 -7 -7 -12
3 -4 -2 -11 -10 -14 -12 -4 -13 -2 -6 13 6 10 7 21 3 25 -3 4 2 4 13 0 11 -5
14 -9 7 -12z m5115 -64 c-3 -8 -6 -5 -6 6 -1 11 2 17 5 13 3 -3 4 -12 1 -19z
m-700 -33 c0 -8 -4 -12 -9 -9 -5 3 -6 10 -3 15 9 13 12 11 12 -6z m-34 -141
c-7 -3 -11 -11 -9 -17 1 -7 1 -9 -1 -4 -3 4 -10 4 -16 0 -7 -4 -6 1 2 10 7 9
19 17 25 16 7 0 7 -2 -1 -5z m-4332 -87 c-10 -9 -11 -8 -5 6 3 10 9 15 12 12
3 -3 0 -11 -7 -18z m16 -59 c2 -17 0 -19 -7 -8 -5 8 -6 18 -4 22 8 12 10 10
11 -14z m743 18 c0 -2 -7 -7 -16 -10 -8 -3 -12 -2 -9 4 6 10 25 14 25 6z
m4219 -115 c7 -5 9 -11 5 -14 -5 -3 -15 1 -22 9 -14 16 -5 18 17 5z m-4164
-70 c3 -5 2 -12 -3 -15 -5 -3 -9 1 -9 9 0 17 3 19 12 6z m4098 -16 c-3 -9 -8
-14 -10 -11 -3 3 -2 9 2 15 9 16 15 13 8 -4z m-4821 -23 c-7 -2 -9 -9 -5 -15
3 -7 2 -8 -2 -4 -16 14 -14 36 3 29 10 -4 12 -7 4 -10z m4033 -100 c-3 -3 -11
0 -18 7 -9 10 -8 11 6 5 10 -3 15 -9 12 -12z m-3968 -29 c0 -6 -4 -10 -8 -7
-4 2 -9 1 -12 -3 -2 -5 -2 -3 -1 4 2 6 -2 14 -9 16 -7 3 -3 5 9 4 11 -1 21 -7
21 -14z m793 -27 c0 -3 -4 -8 -10 -11 -5 -3 -10 -1 -10 4 0 6 5 11 10 11 6 0
10 -2 10 -4z m65 -76 c0 -4 13 -20 28 -34 18 -16 23 -26 14 -26 -8 0 -18 7
-21 16 -3 8 -11 12 -16 9 -6 -4 -9 -1 -8 7 2 7 -2 12 -8 11 -7 -1 -10 6 -7 18
5 18 18 18 18 -1z m2974 -34 c8 -10 9 -16 1 -21 -6 -4 -9 -1 -8 7 2 7 -3 12
-10 10 -8 -1 -11 2 -7 8 8 13 10 13 24 -4z m-155 -185 c-3 -3 -9 -6 -13 -6 -6
0 -21 -11 -56 -42 -7 -7 -17 -13 -22 -13 -14 0 70 67 84 67 7 0 10 -3 7 -6z
m-3494 -25 c0 -11 -19 -15 -25 -6 -3 5 1 10 9 10 9 0 16 -2 16 -4z m3343 -90
c4 -10 1 -13 -8 -9 -8 3 -12 9 -9 14 7 12 11 11 17 -5z m-53 -36 c0 -5 -5 -10
-11 -10 -5 0 -7 5 -4 10 3 6 8 10 11 10 2 0 4 -4 4 -10z m-3185 -20 c-3 -5
-11 -10 -16 -10 -6 0 -7 5 -4 10 3 6 11 10 16 10 6 0 7 -4 4 -10z m946 -7 c13
-17 13 -17 -6 -3 -11 8 -22 16 -24 17 -2 2 0 3 6 3 6 0 17 -8 24 -17z m2179
-36 c0 -4 -6 -2 -14 5 -8 7 -12 17 -9 22 5 8 23 -12 23 -27z m-2016 -30 c4 4
4 0 0 -10 -6 -17 -7 -17 -20 0 -7 10 -13 23 -13 28 0 6 6 2 13 -7 7 -10 16
-15 20 -11z m161 -86 c3 -5 2 -12 -3 -15 -5 -3 -9 1 -9 9 0 17 3 19 12 6z
m1561 -33 c4 -7 3 -8 -4 -4 -7 4 -12 2 -12 -4 0 -6 -5 -8 -11 -4 -8 4 -7 9 2
15 18 11 17 11 25 -3z m-2650 -32 c15 -16 18 -26 6 -26 -4 0 -13 9 -20 20 -14
23 -7 26 14 6z m1244 4 c-18 -12 -30 -13 -30 -2 0 4 10 9 22 9 18 2 20 0 8 -7z
m1289 -7 c-7 -10 -14 -19 -15 -21 -1 -2 -4 4 -8 13 -3 9 -2 13 3 10 5 -3 12
-1 16 5 3 5 9 10 12 10 3 0 -1 -8 -8 -17z m-1200 -27 c11 -14 6 -15 -27 -7 -4
1 8 21 12 21 2 0 9 -6 15 -14z m275 -61 c3 -8 1 -15 -4 -15 -6 0 -10 7 -10 15
0 8 2 15 4 15 2 0 6 -7 10 -15z m86 -12 c0 -3 -6 -3 -12 0 -7 2 -22 0 -33 -5
-19 -9 -19 -8 -2 6 17 13 47 12 47 -1z m431 0 c11 -15 11 -16 -1 -6 -9 9 -17
9 -26 2 -8 -7 -14 -6 -20 2 -4 7 -3 9 4 5 6 -3 13 -2 17 4 8 13 10 13 26 -7z
m-311 -17 c0 -3 -4 -8 -10 -11 -5 -3 -10 -1 -10 4 0 6 5 11 10 11 6 0 10 -2
10 -4z m-1663 -28 c-3 -8 -6 -5 -6 6 -1 11 2 17 5 13 3 -3 4 -12 1 -19z m3463
-8 c0 -5 -2 -10 -4 -10 -3 0 -8 5 -11 10 -3 6 -1 10 4 10 6 0 11 -4 11 -10z
m-22 -21 c3 -12 2 -12 -6 0 -6 8 -15 10 -22 6 -9 -5 -11 -4 -6 4 10 15 28 10
34 -10z m-50 -46 c-6 -8 -14 -11 -17 -7 -3 4 -1 9 6 11 7 2 9 12 6 21 -4 14
-3 15 5 2 8 -10 8 -18 0 -27z m-3208 -73 c13 -11 21 -22 18 -25 -2 -3 -15 6
-28 20 -28 30 -22 33 10 5z m2995 -69 c3 -5 2 -12 -3 -15 -5 -3 -9 1 -9 9 0
17 3 19 12 6z m-2642 -128 c-7 -2 -13 -9 -13 -14 0 -6 5 -7 12 -3 7 5 8 3 3
-5 -5 -9 -11 -9 -17 -3 -12 12 -2 32 15 31 9 0 9 -2 0 -6z m144 -87 c-1 -6 6
-10 15 -10 10 1 15 -2 12 -7 -5 -9 -1 -11 38 -13 12 0 23 -8 25 -16 3 -9 1
-11 -4 -5 -4 6 -15 10 -23 10 -8 -1 -28 6 -45 14 -16 8 -33 16 -37 17 -5 1
-11 2 -14 3 -3 0 -3 5 0 9 8 13 35 10 33 -2z m2071 -38 c-2 -5 -8 -9 -13 -9
-5 0 -11 4 -13 9 -1 5 4 9 13 9 9 0 14 -4 13 -9z m-1928 -40 c0 -4 -4 -8 -9
-8 -6 0 -12 4 -15 8 -3 5 1 9 9 9 8 0 15 -4 15 -9z m244 -60 c-3 -4 -9 -8 -15
-8 -5 0 -9 4 -9 8 0 5 7 9 15 9 8 0 12 -4 9 -9z m1216 -18 c0 -5 -5 -10 -11
-10 -5 0 -7 5 -4 10 3 6 8 10 11 10 2 0 4 -4 4 -10z m-803 -49 c9 9 14 7 19
-6 6 -13 9 -14 16 -3 8 10 9 10 5 -2 -2 -8 -11 -13 -18 -11 -8 2 -20 4 -27 5
-7 1 -17 8 -22 14 -7 9 -7 9 2 2 7 -6 16 -6 25 1z m517 -7 c3 -8 2 -12 -4 -9
-6 3 -10 10 -10 16 0 14 7 11 14 -7z m-274 -13 c0 -4 -6 -8 -13 -8 -8 0 -14 6
-14 13 0 7 6 10 14 7 7 -3 13 -8 13 -12z m40 5 c0 -3 -4 -8 -10 -11 -5 -3 -10
-1 -10 4 0 6 5 11 10 11 6 0 10 -2 10 -4z"/>
<path d="M4062 6051 c-11 -7 -10 -9 3 -14 11 -5 14 -3 9 5 -5 8 -2 9 10 5 10
-4 15 -3 11 3 -7 12 -16 12 -33 1z"/>
<path d="M4160 6050 c-12 -7 -10 -9 7 -7 12 0 19 5 17 9 -6 10 -6 10 -24 -2z"/>
<path d="M4506 5951 c-4 -5 -2 -12 3 -15 5 -4 12 -2 15 3 4 5 2 12 -3 15 -5 4
-12 2 -15 -3z"/>
<path d="M2980 5835 c-19 -14 -30 -25 -25 -25 6 0 24 11 40 25 39 31 30 31
-15 0z"/>
<path d="M4767 5829 c7 -7 15 -10 18 -7 3 3 -2 9 -12 12 -14 6 -15 5 -6 -5z"/>
<path d="M2930 5820 c-8 -26 -7 -41 2 -32 6 6 8 16 5 24 -3 7 -6 11 -7 8z"/>
<path d="M4030 5539 c-7 -11 -9 -23 -6 -27 3 -3 6 0 6 6 0 7 5 12 10 12 6 0 5
-8 -2 -19 -11 -18 -13 -18 -24 -3 -9 13 -10 20 -1 32 11 13 10 13 -6 1 -10 -8
-16 -20 -13 -27 3 -8 0 -11 -10 -7 -16 6 -18 15 -4 29 6 6 3 10 -9 11 -12 1
-23 -9 -31 -28 -7 -16 -17 -26 -22 -23 -6 4 -6 9 -2 13 5 3 10 15 12 26 2 11
-1 16 -5 10 -9 -13 -115 -16 -107 -4 3 5 -2 6 -10 3 -9 -3 -16 -15 -16 -25 0
-10 -4 -19 -9 -19 -4 0 -7 10 -6 23 2 16 -2 23 -15 23 -10 0 -16 -6 -13 -13 3
-7 10 -10 17 -6 6 3 5 0 -3 -8 -10 -11 -15 -11 -18 -1 -3 7 -13 17 -24 22 -15
8 -17 7 -13 -5 3 -8 10 -12 15 -9 5 3 9 1 9 -4 0 -5 -16 -9 -35 -9 -34 0 -35
1 -18 21 10 12 11 15 3 9 -17 -15 -34 -17 -25 -3 3 6 -1 7 -9 4 -9 -3 -16 -14
-16 -24 0 -22 -16 -35 -25 -20 -4 6 -12 5 -21 -5 -9 -8 -20 -15 -26 -15 -6 0
0 9 13 19 17 14 28 16 36 9 10 -8 12 -4 11 14 -1 14 -8 25 -14 25 -7 0 -12 -5
-11 -11 1 -5 -5 -10 -13 -11 -8 -1 -14 -6 -12 -13 3 -16 -15 -16 -22 1 -3 6
-3 -1 -1 -16 3 -23 1 -28 -12 -23 -12 5 -13 4 -5 -7 7 -8 8 -18 4 -22 -4 -5
-2 -5 4 -2 7 4 15 0 18 -9 3 -8 2 -12 -4 -9 -6 3 -10 3 -11 -2 0 -4 -2 -19 -5
-33 l-4 -25 19 23 c11 12 22 22 26 22 4 0 2 -6 -4 -13 -6 -8 -7 -18 -3 -22 4
-5 2 -5 -4 -2 -7 4 -14 -5 -18 -24 -4 -21 -10 -28 -18 -23 -10 5 -10 4 0 -7
11 -12 14 -12 23 1 8 11 9 9 4 -9 -6 -18 -4 -22 6 -16 11 6 12 5 2 -6 -7 -7
-13 -17 -13 -22 0 -4 6 -5 13 -1 6 4 9 4 5 -1 -4 -4 -2 -15 5 -24 10 -14 10
-14 -4 -4 -9 7 -20 9 -24 5 -5 -4 -5 -1 0 7 5 9 4 12 -3 7 -6 -4 -8 -14 -5
-23 5 -12 3 -14 -7 -8 -9 5 -11 4 -6 -4 6 -9 11 -9 22 0 12 10 13 9 9 -4 -4
-8 -1 -18 4 -22 18 -10 2 -25 -22 -21 -12 1 -16 1 -9 -1 7 -3 9 -9 5 -15 -4
-7 0 -9 10 -5 12 4 14 2 10 -10 -5 -12 -3 -14 8 -8 11 6 12 5 2 -6 -14 -14
-18 -33 -5 -25 4 2 9 -5 9 -16 2 -19 1 -19 -11 -3 -11 16 -13 16 -27 -1 -7
-10 -9 -15 -4 -12 6 4 19 -1 30 -9 19 -15 19 -15 -8 -9 -27 6 -27 6 -10 -12
10 -10 21 -17 26 -15 4 2 7 -1 7 -6 0 -6 -5 -11 -11 -11 -8 0 -8 -4 0 -13 8
-10 7 -14 -3 -14 -8 0 -13 8 -11 18 5 25 -10 32 -26 13 -10 -12 -10 -15 1 -12
8 2 15 -3 16 -9 1 -7 2 -17 3 -23 0 -5 7 -8 14 -6 6 1 9 1 4 -1 -4 -3 -5 -9
-2 -14 4 -5 0 -6 -7 -4 -9 4 -14 -2 -15 -15 -1 -11 3 -20 8 -20 6 0 8 4 5 9
-7 11 20 8 31 -3 4 -4 2 -6 -6 -4 -7 2 -16 -3 -19 -11 -3 -9 0 -11 9 -6 11 6
12 5 2 -6 -14 -14 -18 -33 -5 -25 4 2 9 -5 9 -16 2 -19 1 -19 -11 -3 -11 16
-13 16 -27 -1 -7 -10 -9 -15 -4 -12 6 4 19 -1 30 -9 19 -15 19 -15 -8 -9 -27
6 -27 6 -10 -12 10 -10 21 -17 26 -15 4 2 7 -1 7 -6 0 -6 -5 -11 -11 -11 -8 0
-8 -4 0 -13 8 -10 7 -14 -3 -14 -8 0 -13 7 -11 16 3 21 -4 33 -16 25 -5 -3 -6
-11 -2 -17 8 -12 9 -17 12 -37 0 -5 7 -8 14 -6 6 1 9 1 4 -1 -4 -3 -5 -9 -2
-14 4 -5 0 -6 -7 -4 -9 4 -14 -2 -15 -15 -1 -11 3 -20 8 -20 6 0 8 4 5 9 -7
11 20 8 31 -3 4 -4 2 -6 -6 -4 -7 2 -16 -3 -19 -11 -3 -9 0 -11 9 -6 11 6 12
5 2 -6 -15 -15 -18 -33 -5 -25 5 3 9 -1 9 -8 0 -7 -6 -13 -13 -13 -7 0 -10 5
-7 11 3 6 2 7 -2 3 -16 -14 -15 -39 1 -33 8 3 13 2 9 -3 -3 -5 -2 -11 2 -14 5
-2 2 -2 -4 -1 -7 2 -13 -2 -13 -9 0 -9 -3 -8 -9 1 -7 11 -9 11 -14 -2 -4 -9
-11 -16 -17 -16 -6 0 -8 6 -4 13 5 8 2 8 -9 -2 -15 -12 -17 -11 -17 3 0 10 -5
14 -10 11 -6 -4 -7 -12 -3 -18 5 -8 2 -8 -9 0 -8 7 -18 9 -22 5 -4 -4 -6 0 -4
8 2 8 -3 14 -10 12 -8 -1 -11 2 -6 9 5 9 2 10 -9 6 -9 -3 -19 -2 -22 4 -4 5
-10 7 -14 5 -4 -3 -8 1 -8 9 0 13 4 12 19 -2 10 -9 18 -12 17 -7 0 5 -14 20
-32 34 -17 14 -28 19 -24 13 6 -9 1 -12 -18 -11 -15 2 -24 7 -21 14 7 18 -5
24 -25 13 -14 -7 -19 -6 -19 3 0 10 -3 9 -9 -1 -7 -10 -9 -7 -8 12 1 15 6 27
11 27 5 0 7 2 4 5 -12 12 -37 -7 -30 -23 5 -15 3 -14 -13 1 -14 15 -15 21 -6
27 9 5 10 10 2 14 -6 4 -11 2 -11 -3 0 -6 -9 -11 -20 -11 -11 0 -20 5 -20 11
0 5 4 8 9 4 5 -3 12 -1 16 4 3 6 -3 8 -15 6 -11 -2 -22 0 -25 6 -4 5 -1 9 6 9
7 0 10 2 7 5 -3 3 -17 1 -32 -4 -17 -7 -26 -7 -26 -1 0 6 -5 9 -12 7 -6 -1
-12 9 -12 22 -1 17 -8 25 -23 27 -13 2 -23 -1 -23 -7 0 -5 5 -7 12 -3 7 5 8 3
3 -6 -6 -10 -11 -10 -20 3 -12 17 -31 24 -21 9 3 -5 -2 -9 -10 -9 -10 0 -11 4
-4 11 5 5 10 19 10 30 -1 19 -1 20 -11 3 -11 -18 -29 -14 -29 6 0 7 4 6 10 -3
5 -8 10 -10 10 -5 0 6 -5 17 -10 25 -5 8 -10 10 -10 5 0 -6 -13 -11 -30 -11
-16 -1 -28 1 -27 5 1 3 -8 16 -21 29 -17 17 -31 22 -53 18 -16 -2 -27 0 -23 5
3 5 11 6 17 2 7 -4 6 0 -2 10 -7 9 -19 17 -25 17 -6 0 -5 -4 3 -9 10 -6 10
-10 1 -16 -6 -4 -9 -14 -6 -24 5 -14 4 -13 -8 2 -14 17 -32 24 -22 8 8 -12 -4
-41 -16 -41 -6 0 -5 6 2 15 7 9 8 15 2 15 -14 0 -23 -28 -11 -35 5 -4 7 -11 3
-16 -4 -6 -11 -6 -20 2 -19 16 -18 4 2 -15 14 -15 14 -16 0 -16 -9 0 -16 5
-16 10 0 6 -6 5 -14 -2 -12 -11 -12 -14 0 -21 17 -9 7 -38 -11 -31 -17 7 -29
-12 -14 -22 8 -4 9 -3 5 4 -4 8 -2 10 7 6 12 -4 10 -10 -8 -30 -14 -15 -29
-22 -39 -18 -11 4 -16 2 -14 -7 2 -8 -2 -13 -9 -12 -7 2 -10 -7 -7 -22 3 -20
1 -23 -13 -18 -10 3 -15 3 -11 -2 4 -4 2 -15 -5 -23 -11 -13 -9 -14 13 -2 23
12 24 12 12 -3 -8 -9 -10 -22 -6 -29 6 -10 4 -10 -9 0 -9 8 -20 11 -26 8 -5
-3 -12 0 -15 6 -7 17 0 -32 9 -57 6 -18 5 -18 -5 -2 -6 9 -16 15 -21 11 -6 -4
-6 -11 1 -19 23 -27 -6 -41 -40 -20 -13 8 -13 7 -1 -8 12 -16 8 -22 -12 -18
-5 1 -6 -3 -2 -9 3 -6 11 -8 16 -5 5 4 9 -1 9 -9 0 -9 8 -16 19 -16 10 0 25
-8 32 -17 13 -16 12 -17 -3 -5 -12 9 -18 10 -23 2 -4 -6 -4 -14 -1 -17 3 -4 6
-1 6 6 0 7 4 10 10 6 5 -3 6 -13 3 -23 -6 -15 -5 -15 12 1 14 14 20 16 26 6 4
-7 5 -17 3 -21 -3 -4 0 -8 5 -8 6 0 11 10 12 23 0 21 1 21 8 2 5 -11 6 -24 3
-29 -3 -5 0 -6 6 -2 6 3 16 -2 22 -11 10 -16 11 -16 6 -1 -3 12 -1 15 9 12 8
-3 11 -12 9 -19 -4 -10 1 -12 16 -8 16 4 18 8 8 14 -9 6 -10 9 -1 9 7 0 20
-11 29 -25 9 -14 20 -22 26 -19 5 3 12 -4 15 -15 4 -17 10 -20 27 -15 19 6 20
5 6 -11 -12 -15 -12 -17 -1 -10 11 6 13 4 7 -10 -5 -15 -4 -16 8 -6 8 7 14 18
12 24 -1 7 -1 9 1 4 3 -4 10 -4 16 0 7 4 5 -2 -3 -12 -14 -17 -13 -18 3 -12
10 4 16 3 12 -2 -10 -17 20 -19 40 -2 12 9 15 10 8 1 -16 -17 -17 -40 -2 -40
5 0 8 4 4 9 -3 5 -1 12 4 15 6 4 8 -7 6 -25 -4 -28 -3 -30 8 -15 13 17 47 13
47 -6 0 -5 5 -6 10 -3 6 3 10 -1 10 -10 0 -9 -4 -13 -10 -10 -5 3 -10 1 -10
-5 0 -6 12 -8 30 -5 29 5 42 -8 18 -19 -7 -3 2 -3 20 0 23 3 32 0 32 -9 0 -9
9 -13 25 -12 13 2 23 0 22 -3 -1 -4 2 -7 7 -7 5 0 16 -13 23 -30 10 -21 13
-23 9 -8 -2 13 1 26 6 30 6 3 8 1 5 -4 -4 -6 3 -13 14 -16 11 -3 23 -15 26
-26 5 -20 6 -20 19 -4 13 17 14 17 7 -2 -3 -11 -3 -17 2 -13 10 9 35 -10 35
-26 0 -6 -5 -4 -10 4 -5 8 -10 11 -10 5 0 -5 5 -17 10 -25 5 -8 10 -10 10 -4
0 7 9 14 21 17 17 5 18 3 8 -9 -6 -8 -9 -17 -5 -21 3 -3 6 -1 6 6 0 9 5 9 20
1 11 -6 18 -15 16 -19 -3 -4 1 -8 9 -8 11 0 12 4 3 14 -6 7 -9 16 -6 18 3 3
11 -6 18 -20 12 -22 43 -32 83 -26 4 0 7 -4 7 -10 0 -6 -8 -8 -19 -4 -11 3
-22 1 -26 -4 -4 -7 1 -8 12 -4 16 6 17 5 3 -12 -13 -17 -13 -18 0 -10 22 14
48 16 55 5 3 -6 -1 -7 -9 -4 -9 3 -16 2 -16 -4 0 -14 24 -9 46 8 17 14 18 14
5 -2 -12 -16 -11 -18 3 -18 10 0 15 -4 12 -9 -3 -5 8 -14 24 -21 16 -7 27 -17
23 -23 -3 -6 -1 -7 6 -3 6 4 9 11 6 16 -3 5 0 12 6 16 8 4 9 3 5 -4 -4 -7 -2
-12 4 -12 7 0 10 -6 7 -14 -8 -19 17 -53 27 -38 4 7 12 12 17 12 6 0 7 -5 3
-12 -4 -7 -3 -8 4 -4 6 4 9 13 6 21 -8 19 20 14 45 -9 18 -17 19 -16 17 1 -1
14 5 17 24 15 14 -2 32 -4 41 -5 9 -1 16 -6 15 -12 -2 -5 -1 -6 2 -2 2 4 11 2
20 -5 14 -10 15 -10 5 2 -23 26 -8 37 24 17 6 -4 14 -3 18 3 4 6 10 8 15 5 5
-3 13 2 18 11 8 14 10 14 14 -4 4 -15 2 -19 -8 -15 -9 3 -14 -2 -14 -13 0 -16
2 -17 10 -4 5 8 10 11 10 7 0 -4 10 -3 22 4 19 10 20 9 14 -7 -4 -11 6 -4 22
15 22 25 31 30 37 20 5 -8 5 -11 0 -7 -9 9 -40 -30 -31 -39 3 -4 6 -1 6 6 0
15 81 12 93 -4 6 -6 7 -3 4 7 -3 9 1 19 9 22 21 8 24 8 24 -5 0 -5 -4 -7 -10
-4 -6 3 -7 -1 -3 -10 5 -13 7 -14 14 -3 7 11 11 10 19 -2 7 -12 9 -10 7 7 0
12 -5 19 -9 17 -4 -3 -5 2 -2 11 5 12 9 13 20 4 17 -14 18 -5 2 24 -11 21 -10
21 8 7 18 -15 18 -14 2 11 -9 15 -14 30 -11 33 12 12 11 36 0 36 -7 0 -5 5 3
10 8 5 11 10 5 10 -5 0 -3 5 5 10 12 8 12 10 -5 10 -17 0 -17 2 -5 10 8 5 11
10 5 10 -5 0 -3 5 5 10 12 8 12 10 -5 10 -15 0 -17 2 -6 9 9 6 10 11 2 15 -6
4 -8 13 -4 19 12 20 12 37 0 37 -7 0 -5 5 3 10 8 5 11 10 5 10 -5 0 -3 5 5 10
12 8 12 10 -5 10 -17 0 -17 2 -5 10 8 5 11 10 5 10 -5 0 -3 5 5 10 12 8 12 10
-5 10 -15 0 -17 2 -6 9 9 6 10 11 2 15 -6 4 -8 13 -4 19 11 17 10 31 -2 39 -6
5 -6 11 3 20 13 13 17 32 4 24 -5 -3 -9 1 -9 8 0 8 6 12 12 10 6 -3 12 2 12
10 0 8 -4 13 -9 10 -13 -8 -9 10 5 25 10 10 9 12 -3 9 -16 -3 -16 4 -4 36 6
15 4 18 -7 12 -8 -4 0 5 16 19 17 15 24 24 18 21 -20 -11 -36 3 -22 20 6 8 8
14 3 15 -5 0 0 5 11 10 l20 9 -20 -3 c-11 -2 -19 -9 -17 -16 1 -7 -2 -10 -8
-6 -7 4 -7 12 0 25 13 25 13 33 -2 24 -10 -6 -10 -4 0 8 10 13 10 17 0 22 -7
3 1 3 17 0 28 -4 28 -4 6 6 -20 9 -21 13 -10 26 10 12 10 15 -2 12 -15 -3 -15
4 -3 36 6 15 4 18 -7 12 -8 -4 0 5 16 19 17 15 24 24 18 21 -20 -11 -36 3 -22
20 6 8 8 14 3 15 -5 0 0 5 11 10 l20 9 -20 -3 c-11 -2 -19 -9 -17 -16 1 -7 -2
-10 -8 -6 -7 4 -7 12 0 25 13 25 13 33 -2 24 -9 -5 -9 -2 1 9 7 9 21 17 30 18
10 0 8 4 -8 10 -19 8 -21 12 -11 24 7 8 9 15 4 15 -5 0 -2 5 6 11 13 9 13 10
0 6 -8 -2 -14 -10 -12 -16 1 -7 -2 -10 -8 -6 -7 4 -7 13 1 26 6 11 8 27 5 35
-3 8 0 14 7 15 7 0 3 4 -8 9 -11 5 -14 9 -7 9 7 1 10 6 7 11 -3 6 0 10 7 11 7
0 4 4 -7 9 -11 5 -14 9 -6 9 10 1 11 4 2 14 -6 8 -8 17 -4 21 12 12 12 36 0
36 -7 0 -5 5 3 10 8 5 11 10 5 10 -5 0 -3 5 5 10 12 8 12 10 -5 10 -17 0 -17
2 -5 10 8 5 11 10 5 10 -5 0 -3 5 5 10 12 8 12 10 -5 10 -15 0 -17 2 -6 9 9 6
10 11 2 15 -6 4 -8 13 -4 19 12 20 12 37 0 37 -7 0 -5 5 3 10 8 5 11 10 5 10
-5 0 -3 5 5 10 12 8 12 10 -5 10 -17 0 -17 2 -5 10 8 5 11 10 5 10 -5 0 -3 5
5 10 12 8 12 10 -5 10 -15 0 -17 2 -6 9 9 6 10 11 2 15 -6 4 -8 13 -4 19 12
19 12 37 2 37 -6 0 -7 5 -4 10 4 6 10 8 14 6 3 -3 7 17 6 44 0 26 -3 46 -7 43
-5 -2 -8 1 -8 8 0 8 -3 9 -13 0 -8 -6 -17 -7 -21 -3 -7 7 -11 8 -37 11 -5 0
-8 5 -4 10 3 5 1 12 -5 16 -6 4 -8 11 -5 16 4 5 4 9 1 9 -3 0 -10 -9 -16 -21z
m-67 -14 c-3 -9 -8 -14 -10 -11 -3 3 -2 9 2 15 9 16 15 13 8 -4z m-90 -7 c-7
-13 12 -9 27 5 12 10 12 9 2 -4 -6 -9 -8 -19 -4 -24 4 -4 -6 -1 -23 7 -16 9
-36 13 -44 10 -8 -2 -11 0 -7 6 3 5 17 9 30 8 13 0 22 -4 19 -8z m-303 -58 c0
-5 -2 -10 -4 -10 -3 0 -8 5 -11 10 -3 6 -1 10 4 10 6 0 11 -4 11 -10z m-720
-570 c0 -5 -2 -10 -4 -10 -3 0 -8 5 -11 10 -3 6 -1 10 4 10 6 0 11 -4 11 -10z
m281 -167 c13 -16 12 -17 -3 -4 -10 7 -18 15 -18 17 0 8 8 3 21 -13z m-502
-64 c-15 -9 -32 -2 -24 11 3 5 13 6 21 3 12 -4 13 -8 3 -14z m654 -14 c-3 -9
-8 -14 -10 -11 -3 3 -2 9 2 15 9 16 15 13 8 -4z m60 -30 c-3 -9 -8 -14 -10
-11 -3 3 -2 9 2 15 9 16 15 13 8 -4z m-777 -51 c2 -12 -1 -13 -12 -3 -7 6 -11
16 -8 21 7 11 17 3 20 -18z m984 -29 c-14 -7 -28 -11 -33 -8 -14 8 1 18 29 20
l29 1 -25 -13z m-46 -21 c5 -14 4 -15 -9 -4 -17 14 -19 20 -6 20 5 0 12 -7 15
-16z m-977 -39 c0 -7 -6 -12 -13 -12 -7 0 -11 4 -8 8 2 4 -2 9 -8 12 -7 3 -4
5 8 4 11 -1 21 -6 21 -12z m1081 -662 c-14 -13 -16 -13 -22 2 -4 13 -2 16 9
11 10 -3 15 1 16 12 0 12 2 13 6 4 3 -8 -1 -21 -9 -29z m166 29 c3 -5 -1 -9
-9 -9 -8 0 -12 4 -9 9 3 4 7 8 9 8 2 0 6 -4 9 -8z m260 -18 c3 -8 2 -12 -4 -9
-6 3 -10 10 -10 16 0 14 7 11 14 -7z"/>
<path d="M4088 5520 c10 -12 18 -16 21 -9 2 6 -3 15 -10 20 -24 15 -29 10 -11
-11z"/>
<path d="M5215 5489 c-4 -6 -4 -13 -1 -16 3 -4 6 -1 6 5 0 6 7 9 16 5 13 -5
13 -7 2 -14 -9 -6 -9 -9 -1 -9 21 0 24 19 4 30 -14 7 -22 7 -26 -1z"/>
<path d="M2465 5441 c-3 -5 -2 -12 3 -15 5 -3 9 1 9 9 0 17 -3 19 -12 6z"/>
<path d="M2490 5439 c0 -5 5 -7 10 -4 6 3 10 8 10 11 0 2 -4 4 -10 4 -5 0 -10
-5 -10 -11z"/>
<path d="M5347 5349 c7 -7 15 -10 18 -7 3 3 -2 9 -12 12 -14 6 -15 5 -6 -5z"/>
<path d="M2360 5318 c-2 -5 -3 -11 -4 -15 -3 -17 -18 -33 -26 -28 -10 6 -4
-34 6 -44 4 -3 4 1 2 9 -3 8 3 25 14 37 11 12 18 28 15 35 -3 7 -6 10 -7 6z"/>
<path d="M3534 5292 c3 -6 -2 -13 -11 -15 -16 -4 -16 -5 -1 -6 21 -1 32 15 17
25 -7 4 -9 3 -5 -4z"/>
<path d="M2375 5281 c-3 -5 -2 -12 3 -15 5 -3 9 1 9 9 0 17 -3 19 -12 6z"/>
<path d="M3530 5196 c0 -2 7 -7 16 -10 8 -3 12 -2 9 4 -6 10 -25 14 -25 6z"/>
<path d="M5470 5166 c0 -11 30 -39 36 -34 2 3 -5 13 -16 23 -11 10 -20 15 -20
11z"/>
<path d="M3534 5132 c3 -5 0 -13 -6 -15 -9 -4 -10 -6 -1 -6 17 -1 25 16 12 25
-7 4 -9 3 -5 -4z"/>
<path d="M5576 4956 c2 -11 8 -22 14 -24 6 -2 8 -8 4 -13 -3 -5 0 -9 6 -9 7 0
10 6 7 14 -3 7 -2 17 3 22 5 5 -1 14 -15 20 -21 10 -23 9 -19 -10z"/>
<path d="M2886 4886 c10 -8 21 -12 24 -10 5 6 -21 24 -34 24 -6 0 -1 -6 10
-14z"/>
<path d="M3534 4892 c3 -5 0 -13 -6 -15 -9 -4 -10 -6 -1 -6 17 -1 25 16 12 25
-7 4 -9 3 -5 -4z"/>
<path d="M5620 4870 c-9 -6 -10 -10 -3 -10 6 0 15 5 18 10 8 12 4 12 -15 0z"/>
<path d="M3075 4769 c-3 -4 2 -6 10 -5 21 3 28 13 10 13 -9 0 -18 -4 -20 -8z"/>
<path d="M2637 4733 c5 -12 3 -14 -7 -8 -9 5 -11 4 -6 -3 10 -16 23 -15 29 2
3 8 0 17 -8 20 -10 3 -12 0 -8 -11z"/>
<path d="M3257 4693 c-10 -9 -9 -23 1 -23 5 0 9 7 9 15 0 17 -1 18 -10 8z"/>
<path d="M5678 4693 c6 -2 9 -10 6 -15 -4 -7 -2 -8 5 -4 13 9 5 26 -12 25 -9
0 -8 -2 1 -6z"/>
<path d="M4145 4648 l-20 -21 23 12 c12 6 22 16 22 21 0 13 -2 12 -25 -12z"/>
<path d="M3534 4652 c3 -6 -2 -13 -11 -15 -16 -4 -16 -5 -1 -6 21 -1 32 15 17
25 -7 4 -9 3 -5 -4z"/>
<path d="M3426 4601 c-3 -4 0 -16 8 -26 11 -15 13 -16 13 -1 0 9 -4 16 -9 16
-5 0 -6 5 -3 10 3 6 4 10 1 10 -3 0 -7 -4 -10 -9z"/>
<path d="M2490 4526 c0 -2 7 -7 16 -10 8 -3 12 -2 9 4 -6 10 -25 14 -25 6z"/>
<path d="M4145 4408 l-20 -21 23 12 c12 6 22 16 22 21 0 13 -2 12 -25 -12z"/>
<path d="M5757 4353 c-10 -9 -9 -23 1 -23 5 0 9 7 9 15 0 17 -1 18 -10 8z"/>
<path d="M2680 4340 c-11 -7 -12 -10 -2 -10 8 0 22 -10 31 -22 15 -18 19 -19
24 -5 4 10 2 14 -7 11 -7 -3 -17 4 -22 15 -7 15 -13 18 -24 11z"/>
<path d="M2910 4201 c0 -5 7 -11 14 -14 10 -4 13 -1 9 9 -6 15 -23 19 -23 5z"/>
<path d="M5746 4198 c3 -5 10 -6 15 -3 13 9 11 12 -6 12 -8 0 -12 -4 -9 -9z"/>
<path d="M3060 4109 c-12 -9 -12 -10 4 -5 14 5 17 3 12 -11 -6 -15 -5 -16 5
-5 18 17 -1 35 -21 21z"/>
<path d="M1980 4098 c0 -4 4 -8 9 -8 6 0 12 4 15 8 3 5 -1 9 -9 9 -8 0 -15 -4
-15 -9z"/>
<path d="M3150 4073 c0 -5 4 -14 9 -21 7 -11 9 -11 14 1 3 8 3 18 0 21 -9 8
-23 7 -23 -1z"/>
<path d="M5750 4036 c7 -7 13 -7 20 0 6 6 3 10 -10 10 -13 0 -16 -4 -10 -10z"/>
<path d="M3215 4029 c-4 -6 -5 -12 -2 -15 2 -3 7 2 10 11 7 17 1 20 -8 4z"/>
<path d="M4153 3955 c0 -8 4 -12 9 -9 5 3 6 10 3 15 -9 13 -12 11 -12 -6z"/>
<path d="M3653 3805 c0 -8 4 -12 9 -9 5 3 6 10 3 15 -9 13 -12 11 -12 -6z"/>
<path d="M3709 3807 c6 -6 18 -12 27 -13 12 -2 14 0 5 9 -6 6 -18 12 -27 13
-12 2 -14 0 -5 -9z"/>
<path d="M3819 3808 c17 -22 27 -23 35 -2 5 13 4 14 -7 6 -10 -9 -17 -8 -27 1
-12 10 -12 9 -1 -5z"/>
<path d="M5695 3740 c-3 -5 -1 -10 4 -10 6 0 11 5 11 10 0 6 -2 10 -4 10 -3 0
-8 -4 -11 -10z"/>
<path d="M2085 3561 c-3 -5 -2 -12 3 -15 5 -3 9 1 9 9 0 17 -3 19 -12 6z"/>
<path d="M2098 3493 c6 -9 17 -18 26 -19 9 -1 14 2 10 7 -3 5 -10 7 -15 4 -5
-4 -9 1 -9 9 0 9 -5 16 -10 16 -7 0 -8 -6 -2 -17z"/>
<path d="M2135 3410 c3 -5 8 -10 11 -10 2 0 4 5 4 10 0 6 -5 10 -11 10 -5 0
-7 -4 -4 -10z"/>
<path d="M5602 3405 c-7 -8 -9 -15 -4 -15 5 0 15 7 22 15 16 19 -1 19 -18 0z"/>
<path d="M5240 2880 c-8 -5 -10 -10 -5 -10 6 0 17 5 25 10 8 5 11 10 5 10 -5
0 -17 -5 -25 -10z"/>
<path d="M2511 2827 c2 -1 12 -9 22 -16 15 -12 17 -12 11 3 -3 9 -13 16 -22
16 -8 0 -13 -1 -11 -3z"/>
<path d="M5078 2703 c6 -2 9 -10 6 -15 -4 -7 -2 -8 5 -4 13 9 5 26 -12 25 -9
0 -8 -2 1 -6z"/>
<path d="M2770 2621 c0 -5 5 -13 10 -16 6 -3 10 -2 10 4 0 5 -4 13 -10 16 -5
3 -10 2 -10 -4z"/>
<path d="M4440 2380 c-8 -5 -10 -10 -5 -10 6 0 17 5 25 10 8 5 11 10 5 10 -5
0 -17 -5 -25 -10z"/>
<path d="M3446 2342 c-3 -5 1 -15 8 -21 11 -10 14 -9 12 3 -3 21 -13 29 -20
18z"/>
<path d="M4264 2338 c-4 -7 -3 -10 1 -5 5 4 19 0 31 -8 15 -9 25 -11 29 -5 4
6 3 9 -2 8 -4 -1 -18 3 -30 10 -17 10 -23 9 -29 0z"/>
<path d="M3515 2310 c-3 -5 -1 -10 4 -10 6 0 11 5 11 10 0 6 -2 10 -4 10 -3 0
-8 -4 -11 -10z"/>
<path d="M3753 2295 c0 -8 4 -12 9 -9 5 3 6 10 3 15 -9 13 -12 11 -12 -6z"/>
<path d="M4021 2293 c-1 -17 16 -25 25 -12 4 7 3 9 -4 5 -5 -3 -13 0 -15 6 -4
9 -6 10 -6 1z"/>
<path d="M4200 6766 c0 -2 8 -10 18 -17 15 -13 16 -12 3 4 -13 16 -21 21 -21
13z"/>
<path d="M3416 6747 c3 -10 9 -15 12 -12 3 3 0 11 -7 18 -10 9 -11 8 -5 -6z"/>
<path d="M3750 6749 c0 -5 5 -7 10 -4 6 3 10 8 10 11 0 2 -4 4 -10 4 -5 0 -10
-5 -10 -11z"/>
<path d="M4166 6743 c-6 -14 -5 -15 5 -6 7 7 10 15 7 18 -3 3 -9 -2 -12 -12z"/>
<path d="M4245 6740 c3 -5 8 -10 11 -10 2 0 4 5 4 10 0 6 -5 10 -11 10 -5 0
-7 -4 -4 -10z"/>
<path d="M3286 6698 c3 -4 9 -8 15 -8 5 0 9 4 9 8 0 5 -7 9 -15 9 -8 0 -12 -4
-9 -9z"/>
<path d="M4550 6666 c0 -2 9 -6 20 -9 11 -3 20 -1 20 4 0 5 -9 9 -20 9 -11 0
-20 -2 -20 -4z"/>
<path d="M4747 6604 c3 -7 9 -14 14 -14 14 0 10 17 -5 23 -10 4 -13 1 -9 -9z"/>
<path d="M4790 6598 c0 -4 4 -8 9 -8 6 0 12 4 15 8 3 5 -1 9 -9 9 -8 0 -15 -4
-15 -9z"/>
<path d="M4840 6600 c0 -5 5 -10 11 -10 5 0 7 5 4 10 -3 6 -8 10 -11 10 -2 0
-4 -4 -4 -10z"/>
<path d="M4899 6558 c14 -19 32 -15 30 5 0 8 -2 8 -6 -1 -4 -10 -8 -10 -21 0
-15 12 -16 11 -3 -4z"/>
<path d="M2850 6549 c0 -5 5 -7 10 -4 6 3 10 8 10 11 0 2 -4 4 -10 4 -5 0 -10
-5 -10 -11z"/>
<path d="M2756 6522 c-3 -5 1 -9 9 -9 8 0 12 4 9 9 -3 4 -7 8 -9 8 -2 0 -6 -4
-9 -8z"/>
<path d="M2624 6459 c-4 -8 -3 -10 5 -5 6 4 18 3 26 -4 9 -7 15 -8 20 0 3 5 2
10 -4 10 -5 0 -16 3 -24 6 -8 3 -18 0 -23 -7z"/>
<path d="M5096 6452 c-3 -5 1 -9 9 -9 8 0 12 4 9 9 -3 4 -7 8 -9 8 -2 0 -6 -4
-9 -8z"/>
<path d="M5131 6444 c0 -11 3 -14 6 -6 3 7 2 16 -1 19 -3 4 -6 -2 -5 -13z"/>
<path d="M2576 6415 c4 -8 10 -12 15 -9 11 6 2 24 -11 24 -5 0 -7 -7 -4 -15z"/>
<path d="M2494 6382 c4 -3 14 -7 22 -8 9 -1 13 0 10 4 -4 3 -14 7 -22 8 -9 1
-13 0 -10 -4z"/>
<path d="M5370 6296 c0 -2 7 -9 15 -16 13 -11 14 -10 9 4 -5 14 -24 23 -24 12z"/>
<path d="M2186 6178 c3 -5 10 -6 15 -3 13 9 11 12 -6 12 -8 0 -12 -4 -9 -9z"/>
<path d="M5578 6123 c6 -2 18 -2 25 0 6 3 1 5 -13 5 -14 0 -19 -2 -12 -5z"/>
<path d="M5626 6078 c3 -5 10 -6 15 -3 13 9 11 12 -6 12 -8 0 -12 -4 -9 -9z"/>
<path d="M5852 5850 c7 -10 14 -18 15 -16 6 6 -9 36 -18 36 -5 0 -4 -9 3 -20z"/>
<path d="M1821 5809 c-1 -21 25 -44 34 -29 3 5 -1 10 -9 10 -8 0 -17 8 -19 18
-4 14 -5 14 -6 1z"/>
<path d="M5968 5703 c7 -3 16 -2 19 1 4 3 -2 6 -13 5 -11 0 -14 -3 -6 -6z"/>
<path d="M1676 5617 c3 -10 9 -15 12 -12 3 3 0 11 -7 18 -10 9 -11 8 -5 -6z"/>
<path d="M6071 5576 c-10 -12 -8 -17 9 -26 20 -10 21 -10 11 8 -6 11 -7 22 -4
26 3 3 4 6 1 6 -3 0 -11 -6 -17 -14z"/>
<path d="M1635 5540 c2 -27 10 -33 12 -10 1 11 -2 22 -6 24 -4 3 -7 -4 -6 -14z"/>
<path d="M1595 5480 c-3 -5 -1 -10 4 -10 6 0 11 5 11 10 0 6 -2 10 -4 10 -3 0
-8 -4 -11 -10z"/>
<path d="M1606 5455 c-11 -8 -15 -15 -9 -15 6 0 16 7 23 15 16 19 11 19 -14 0z"/>
<path d="M6270 5236 c0 -8 4 -17 9 -20 5 -4 7 3 4 14 -6 23 -13 26 -13 6z"/>
<path d="M1452 5178 c15 -13 15 -15 0 -26 -14 -10 -13 -11 6 -2 12 6 22 13 22
15 0 2 -10 9 -22 15 -20 10 -21 9 -6 -2z"/>
<path d="M6310 5130 c-9 -6 -10 -10 -3 -10 6 0 15 5 18 10 8 12 4 12 -15 0z"/>
<path d="M1387 5019 c7 -9 10 -19 6 -22 -3 -4 -1 -7 5 -7 17 0 15 16 -5 31
-16 12 -17 12 -6 -2z"/>
<path d="M6470 4561 c0 -6 4 -13 10 -16 6 -3 7 1 4 9 -7 18 -14 21 -14 7z"/>
<path d="M1274 4548 c-5 -7 -2 -8 6 -3 10 6 12 4 7 -8 -3 -9 -1 -19 6 -23 7
-4 9 -4 5 1 -4 4 -3 14 2 20 8 9 6 14 -4 18 -9 4 -18 1 -22 -5z"/>
<path d="M6480 4021 c0 -6 4 -13 10 -16 6 -3 7 1 4 9 -7 18 -14 21 -14 7z"/>
<path d="M1270 3880 c0 -5 7 -10 16 -10 8 0 12 5 9 10 -3 6 -10 10 -16 10 -5
0 -9 -4 -9 -10z"/>
<path d="M6461 3821 c-7 -5 -9 -11 -5 -14 5 -3 15 1 22 9 14 16 5 18 -17 5z"/>
<path d="M1276 3693 c-6 -14 -5 -15 5 -6 7 7 10 15 7 18 -3 3 -9 -2 -12 -12z"/>
<path d="M6436 3685 c-3 -8 -1 -15 4 -15 6 0 10 7 10 15 0 8 -2 15 -4 15 -2 0
-6 -7 -10 -15z"/>
<path d="M1317 3591 c23 -22 39 -28 28 -11 -3 5 -16 15 -28 21 l-22 11 22 -21z"/>
<path d="M6285 3180 c-3 -5 -1 -10 4 -10 6 0 11 5 11 10 0 6 -2 10 -4 10 -3 0
-8 -4 -11 -10z"/>
<path d="M6250 3096 c0 -2 7 -9 15 -16 9 -7 15 -8 15 -2 0 5 -7 12 -15 16 -8
3 -15 4 -15 2z"/>
<path d="M1510 3040 c0 -5 5 -10 10 -10 6 0 10 5 10 10 0 6 -4 10 -10 10 -5 0
-10 -4 -10 -10z"/>
<path d="M6210 2971 c0 -7 -5 -9 -12 -5 -7 5 -8 3 -3 -5 5 -9 10 -10 18 -2 6
6 8 14 4 18 -4 3 -7 1 -7 -6z"/>
<path d="M1549 2959 c-12 -7 -11 -9 3 -9 9 0 18 -6 21 -12 2 -7 7 -11 10 -8 3
3 0 13 -7 22 -8 11 -17 14 -27 7z"/>
<path d="M6113 2812 c0 -12 5 -22 9 -22 11 0 10 12 -2 30 -7 12 -9 10 -7 -8z"/>
<path d="M1634 2788 c-4 -6 -3 -8 4 -4 5 3 12 1 14 -6 3 -8 6 -9 11 -1 4 6 0
13 -8 17 -8 3 -17 0 -21 -6z"/>
<path d="M6046 2732 c-3 -5 1 -9 9 -9 8 0 15 4 15 9 0 4 -4 8 -9 8 -6 0 -12
-4 -15 -8z"/>
<path d="M1893 2455 c-3 -9 -3 -18 -1 -21 3 -3 8 4 11 16 6 23 -1 27 -10 5z"/>
<path d="M5749 2360 c-13 -10 -18 -19 -11 -20 6 0 12 5 12 11 0 8 6 7 17 -2
14 -12 15 -12 9 0 -5 8 -3 17 5 22 8 5 9 9 3 9 -7 0 -22 -9 -35 -20z"/>
<path d="M2433 1965 c0 -8 4 -12 9 -9 5 3 6 10 3 15 -9 13 -12 11 -12 -6z"/>
<path d="M5241 1951 c-8 -5 -9 -11 -3 -15 5 -3 12 1 16 9 6 17 6 18 -13 6z"/>
<path d="M2510 1920 c0 -5 5 -10 11 -10 5 0 7 5 4 10 -3 6 -8 10 -11 10 -2 0
-4 -4 -4 -10z"/>
<path d="M2554 1899 c-4 -7 -3 -9 4 -5 6 3 13 -2 15 -11 4 -16 5 -16 6 -1 1
21 -15 32 -25 17z"/>
<path d="M2730 1821 c0 -5 5 -13 10 -16 6 -3 10 -2 10 4 0 5 -4 13 -10 16 -5
3 -10 2 -10 -4z"/>
<path d="M4806 1731 c-4 -7 -5 -15 -2 -18 9 -9 19 4 14 18 -4 11 -6 11 -12 0z"/>
<path d="M4486 1625 c4 -8 11 -15 16 -15 6 0 5 6 -2 15 -7 8 -14 15 -16 15 -2
0 -1 -7 2 -15z"/>
<path d="M3370 1601 c0 -6 4 -13 10 -16 6 -3 7 1 4 9 -7 18 -14 21 -14 7z"/>
<path d="M4237 1578 c-10 -11 -17 -22 -14 -24 2 -2 12 5 22 16 23 26 16 33 -8
8z"/>
<path d="M3715 1570 c-4 -6 -11 -8 -16 -5 -5 4 -9 1 -9 -4 0 -14 17 -14 26 0
4 8 9 7 15 -2 6 -10 9 -10 9 -2 0 16 -17 26 -25 13z"/>
<path d="M3990 1555 c0 -8 4 -15 10 -15 5 0 7 7 4 15 -4 8 -8 15 -10 15 -2 0
-4 -7 -4 -15z"/>
</g>
</svg>
